%TF.GenerationSoftware,KiCad,Pcbnew,6.0.9-8da3e8f707~116~ubuntu22.04.1*%
%TF.CreationDate,2022-11-24T00:32:46-04:00*%
%TF.ProjectId,rix,7269782e-6b69-4636-9164-5f7063625858,rev?*%
%TF.SameCoordinates,Original*%
%TF.FileFunction,Legend,Top*%
%TF.FilePolarity,Positive*%
%FSLAX46Y46*%
G04 Gerber Fmt 4.6, Leading zero omitted, Abs format (unit mm)*
G04 Created by KiCad (PCBNEW 6.0.9-8da3e8f707~116~ubuntu22.04.1) date 2022-11-24 00:32:46*
%MOMM*%
%LPD*%
G01*
G04 APERTURE LIST*
%ADD10C,0.150000*%
%ADD11C,0.120000*%
G04 APERTURE END LIST*
D10*
X119907023Y-69665380D02*
X119573690Y-69189190D01*
X119335595Y-69665380D02*
X119335595Y-68665380D01*
X119716547Y-68665380D01*
X119811785Y-68713000D01*
X119859404Y-68760619D01*
X119907023Y-68855857D01*
X119907023Y-68998714D01*
X119859404Y-69093952D01*
X119811785Y-69141571D01*
X119716547Y-69189190D01*
X119335595Y-69189190D01*
X120335595Y-69665380D02*
X120335595Y-68665380D01*
X120716547Y-68665380D02*
X121383214Y-69665380D01*
X121383214Y-68665380D02*
X120716547Y-69665380D01*
X122526071Y-69665380D02*
X122526071Y-68665380D01*
X122859404Y-69379666D01*
X123192738Y-68665380D01*
X123192738Y-69665380D01*
X124049880Y-69617761D02*
X123954642Y-69665380D01*
X123764166Y-69665380D01*
X123668928Y-69617761D01*
X123621309Y-69522523D01*
X123621309Y-69141571D01*
X123668928Y-69046333D01*
X123764166Y-68998714D01*
X123954642Y-68998714D01*
X124049880Y-69046333D01*
X124097500Y-69141571D01*
X124097500Y-69236809D01*
X123621309Y-69332047D01*
X124383214Y-68998714D02*
X124764166Y-68998714D01*
X124526071Y-68665380D02*
X124526071Y-69522523D01*
X124573690Y-69617761D01*
X124668928Y-69665380D01*
X124764166Y-69665380D01*
X125526071Y-69665380D02*
X125526071Y-69141571D01*
X125478452Y-69046333D01*
X125383214Y-68998714D01*
X125192738Y-68998714D01*
X125097500Y-69046333D01*
X125526071Y-69617761D02*
X125430833Y-69665380D01*
X125192738Y-69665380D01*
X125097500Y-69617761D01*
X125049880Y-69522523D01*
X125049880Y-69427285D01*
X125097500Y-69332047D01*
X125192738Y-69284428D01*
X125430833Y-69284428D01*
X125526071Y-69236809D01*
X126145119Y-69665380D02*
X126049880Y-69617761D01*
X126002261Y-69522523D01*
X126002261Y-68665380D01*
X127287976Y-69665380D02*
X127287976Y-68665380D01*
X127526071Y-68665380D01*
X127668928Y-68713000D01*
X127764166Y-68808238D01*
X127811785Y-68903476D01*
X127859404Y-69093952D01*
X127859404Y-69236809D01*
X127811785Y-69427285D01*
X127764166Y-69522523D01*
X127668928Y-69617761D01*
X127526071Y-69665380D01*
X127287976Y-69665380D01*
X128668928Y-69617761D02*
X128573690Y-69665380D01*
X128383214Y-69665380D01*
X128287976Y-69617761D01*
X128240357Y-69522523D01*
X128240357Y-69141571D01*
X128287976Y-69046333D01*
X128383214Y-68998714D01*
X128573690Y-68998714D01*
X128668928Y-69046333D01*
X128716547Y-69141571D01*
X128716547Y-69236809D01*
X128240357Y-69332047D01*
X129002261Y-68998714D02*
X129383214Y-68998714D01*
X129145119Y-68665380D02*
X129145119Y-69522523D01*
X129192738Y-69617761D01*
X129287976Y-69665380D01*
X129383214Y-69665380D01*
X130097500Y-69617761D02*
X130002261Y-69665380D01*
X129811785Y-69665380D01*
X129716547Y-69617761D01*
X129668928Y-69522523D01*
X129668928Y-69141571D01*
X129716547Y-69046333D01*
X129811785Y-68998714D01*
X130002261Y-68998714D01*
X130097500Y-69046333D01*
X130145119Y-69141571D01*
X130145119Y-69236809D01*
X129668928Y-69332047D01*
X131002261Y-69617761D02*
X130907023Y-69665380D01*
X130716547Y-69665380D01*
X130621309Y-69617761D01*
X130573690Y-69570142D01*
X130526071Y-69474904D01*
X130526071Y-69189190D01*
X130573690Y-69093952D01*
X130621309Y-69046333D01*
X130716547Y-68998714D01*
X130907023Y-68998714D01*
X131002261Y-69046333D01*
X131287976Y-68998714D02*
X131668928Y-68998714D01*
X131430833Y-68665380D02*
X131430833Y-69522523D01*
X131478452Y-69617761D01*
X131573690Y-69665380D01*
X131668928Y-69665380D01*
X132145119Y-69665380D02*
X132049880Y-69617761D01*
X132002261Y-69570142D01*
X131954642Y-69474904D01*
X131954642Y-69189190D01*
X132002261Y-69093952D01*
X132049880Y-69046333D01*
X132145119Y-68998714D01*
X132287976Y-68998714D01*
X132383214Y-69046333D01*
X132430833Y-69093952D01*
X132478452Y-69189190D01*
X132478452Y-69474904D01*
X132430833Y-69570142D01*
X132383214Y-69617761D01*
X132287976Y-69665380D01*
X132145119Y-69665380D01*
X132907023Y-69665380D02*
X132907023Y-68998714D01*
X132907023Y-69189190D02*
X132954642Y-69093952D01*
X133002261Y-69046333D01*
X133097500Y-68998714D01*
X133192738Y-68998714D01*
X119192738Y-70275380D02*
X119526071Y-71275380D01*
X119859404Y-70275380D01*
X120573690Y-71227761D02*
X120478452Y-71275380D01*
X120287976Y-71275380D01*
X120192738Y-71227761D01*
X120145119Y-71132523D01*
X120145119Y-70751571D01*
X120192738Y-70656333D01*
X120287976Y-70608714D01*
X120478452Y-70608714D01*
X120573690Y-70656333D01*
X120621309Y-70751571D01*
X120621309Y-70846809D01*
X120145119Y-70942047D01*
X121049880Y-71275380D02*
X121049880Y-70608714D01*
X121049880Y-70799190D02*
X121097500Y-70703952D01*
X121145119Y-70656333D01*
X121240357Y-70608714D01*
X121335595Y-70608714D01*
X121621309Y-71227761D02*
X121716547Y-71275380D01*
X121907023Y-71275380D01*
X122002261Y-71227761D01*
X122049880Y-71132523D01*
X122049880Y-71084904D01*
X122002261Y-70989666D01*
X121907023Y-70942047D01*
X121764166Y-70942047D01*
X121668928Y-70894428D01*
X121621309Y-70799190D01*
X121621309Y-70751571D01*
X121668928Y-70656333D01*
X121764166Y-70608714D01*
X121907023Y-70608714D01*
X122002261Y-70656333D01*
X122478452Y-71275380D02*
X122478452Y-70608714D01*
X122478452Y-70275380D02*
X122430833Y-70323000D01*
X122478452Y-70370619D01*
X122526071Y-70323000D01*
X122478452Y-70275380D01*
X122478452Y-70370619D01*
X123097500Y-71275380D02*
X123002261Y-71227761D01*
X122954642Y-71180142D01*
X122907023Y-71084904D01*
X122907023Y-70799190D01*
X122954642Y-70703952D01*
X123002261Y-70656333D01*
X123097500Y-70608714D01*
X123240357Y-70608714D01*
X123335595Y-70656333D01*
X123383214Y-70703952D01*
X123430833Y-70799190D01*
X123430833Y-71084904D01*
X123383214Y-71180142D01*
X123335595Y-71227761D01*
X123240357Y-71275380D01*
X123097500Y-71275380D01*
X123859404Y-70608714D02*
X123859404Y-71275380D01*
X123859404Y-70703952D02*
X123907023Y-70656333D01*
X124002261Y-70608714D01*
X124145119Y-70608714D01*
X124240357Y-70656333D01*
X124287976Y-70751571D01*
X124287976Y-71275380D01*
X124764166Y-71180142D02*
X124811785Y-71227761D01*
X124764166Y-71275380D01*
X124716547Y-71227761D01*
X124764166Y-71180142D01*
X124764166Y-71275380D01*
X124764166Y-70656333D02*
X124811785Y-70703952D01*
X124764166Y-70751571D01*
X124716547Y-70703952D01*
X124764166Y-70656333D01*
X124764166Y-70751571D01*
X126192738Y-70275380D02*
X126287976Y-70275380D01*
X126383214Y-70323000D01*
X126430833Y-70370619D01*
X126478452Y-70465857D01*
X126526071Y-70656333D01*
X126526071Y-70894428D01*
X126478452Y-71084904D01*
X126430833Y-71180142D01*
X126383214Y-71227761D01*
X126287976Y-71275380D01*
X126192738Y-71275380D01*
X126097500Y-71227761D01*
X126049880Y-71180142D01*
X126002261Y-71084904D01*
X125954642Y-70894428D01*
X125954642Y-70656333D01*
X126002261Y-70465857D01*
X126049880Y-70370619D01*
X126097500Y-70323000D01*
X126192738Y-70275380D01*
X126954642Y-71180142D02*
X127002261Y-71227761D01*
X126954642Y-71275380D01*
X126907023Y-71227761D01*
X126954642Y-71180142D01*
X126954642Y-71275380D01*
X127954642Y-71275380D02*
X127383214Y-71275380D01*
X127668928Y-71275380D02*
X127668928Y-70275380D01*
X127573690Y-70418238D01*
X127478452Y-70513476D01*
X127383214Y-70561095D01*
X128383214Y-71180142D02*
X128430833Y-71227761D01*
X128383214Y-71275380D01*
X128335595Y-71227761D01*
X128383214Y-71180142D01*
X128383214Y-71275380D01*
X129049880Y-70275380D02*
X129145119Y-70275380D01*
X129240357Y-70323000D01*
X129287976Y-70370619D01*
X129335595Y-70465857D01*
X129383214Y-70656333D01*
X129383214Y-70894428D01*
X129335595Y-71084904D01*
X129287976Y-71180142D01*
X129240357Y-71227761D01*
X129145119Y-71275380D01*
X129049880Y-71275380D01*
X128954642Y-71227761D01*
X128907023Y-71180142D01*
X128859404Y-71084904D01*
X128811785Y-70894428D01*
X128811785Y-70656333D01*
X128859404Y-70465857D01*
X128907023Y-70370619D01*
X128954642Y-70323000D01*
X129049880Y-70275380D01*
X129811785Y-70894428D02*
X130573690Y-70894428D01*
X131240357Y-70275380D02*
X131430833Y-70275380D01*
X131526071Y-70323000D01*
X131621309Y-70418238D01*
X131668928Y-70608714D01*
X131668928Y-70942047D01*
X131621309Y-71132523D01*
X131526071Y-71227761D01*
X131430833Y-71275380D01*
X131240357Y-71275380D01*
X131145119Y-71227761D01*
X131049880Y-71132523D01*
X131002261Y-70942047D01*
X131002261Y-70608714D01*
X131049880Y-70418238D01*
X131145119Y-70323000D01*
X131240357Y-70275380D01*
X132097500Y-71275380D02*
X132097500Y-70275380D01*
X132097500Y-70751571D02*
X132668928Y-70751571D01*
X132668928Y-71275380D02*
X132668928Y-70275380D01*
X119526071Y-71885380D02*
X119716547Y-71885380D01*
X119811785Y-71933000D01*
X119907023Y-72028238D01*
X119954642Y-72218714D01*
X119954642Y-72552047D01*
X119907023Y-72742523D01*
X119811785Y-72837761D01*
X119716547Y-72885380D01*
X119526071Y-72885380D01*
X119430833Y-72837761D01*
X119335595Y-72742523D01*
X119287976Y-72552047D01*
X119287976Y-72218714D01*
X119335595Y-72028238D01*
X119430833Y-71933000D01*
X119526071Y-71885380D01*
X120383214Y-72218714D02*
X120383214Y-73218714D01*
X120383214Y-72266333D02*
X120478452Y-72218714D01*
X120668928Y-72218714D01*
X120764166Y-72266333D01*
X120811785Y-72313952D01*
X120859404Y-72409190D01*
X120859404Y-72694904D01*
X120811785Y-72790142D01*
X120764166Y-72837761D01*
X120668928Y-72885380D01*
X120478452Y-72885380D01*
X120383214Y-72837761D01*
X121668928Y-72837761D02*
X121573690Y-72885380D01*
X121383214Y-72885380D01*
X121287976Y-72837761D01*
X121240357Y-72742523D01*
X121240357Y-72361571D01*
X121287976Y-72266333D01*
X121383214Y-72218714D01*
X121573690Y-72218714D01*
X121668928Y-72266333D01*
X121716547Y-72361571D01*
X121716547Y-72456809D01*
X121240357Y-72552047D01*
X122145119Y-72218714D02*
X122145119Y-72885380D01*
X122145119Y-72313952D02*
X122192738Y-72266333D01*
X122287976Y-72218714D01*
X122430833Y-72218714D01*
X122526071Y-72266333D01*
X122573690Y-72361571D01*
X122573690Y-72885380D01*
X123811785Y-72885380D02*
X123811785Y-71885380D01*
X124240357Y-72885380D02*
X124240357Y-72361571D01*
X124192738Y-72266333D01*
X124097500Y-72218714D01*
X123954642Y-72218714D01*
X123859404Y-72266333D01*
X123811785Y-72313952D01*
X125145119Y-72885380D02*
X125145119Y-72361571D01*
X125097500Y-72266333D01*
X125002261Y-72218714D01*
X124811785Y-72218714D01*
X124716547Y-72266333D01*
X125145119Y-72837761D02*
X125049880Y-72885380D01*
X124811785Y-72885380D01*
X124716547Y-72837761D01*
X124668928Y-72742523D01*
X124668928Y-72647285D01*
X124716547Y-72552047D01*
X124811785Y-72504428D01*
X125049880Y-72504428D01*
X125145119Y-72456809D01*
X125621309Y-72885380D02*
X125621309Y-72218714D01*
X125621309Y-72409190D02*
X125668928Y-72313952D01*
X125716547Y-72266333D01*
X125811785Y-72218714D01*
X125907023Y-72218714D01*
X126668928Y-72885380D02*
X126668928Y-71885380D01*
X126668928Y-72837761D02*
X126573690Y-72885380D01*
X126383214Y-72885380D01*
X126287976Y-72837761D01*
X126240357Y-72790142D01*
X126192738Y-72694904D01*
X126192738Y-72409190D01*
X126240357Y-72313952D01*
X126287976Y-72266333D01*
X126383214Y-72218714D01*
X126573690Y-72218714D01*
X126668928Y-72266333D01*
X127049880Y-72218714D02*
X127240357Y-72885380D01*
X127430833Y-72409190D01*
X127621309Y-72885380D01*
X127811785Y-72218714D01*
X128621309Y-72885380D02*
X128621309Y-72361571D01*
X128573690Y-72266333D01*
X128478452Y-72218714D01*
X128287976Y-72218714D01*
X128192738Y-72266333D01*
X128621309Y-72837761D02*
X128526071Y-72885380D01*
X128287976Y-72885380D01*
X128192738Y-72837761D01*
X128145119Y-72742523D01*
X128145119Y-72647285D01*
X128192738Y-72552047D01*
X128287976Y-72504428D01*
X128526071Y-72504428D01*
X128621309Y-72456809D01*
X129097500Y-72885380D02*
X129097500Y-72218714D01*
X129097500Y-72409190D02*
X129145119Y-72313952D01*
X129192738Y-72266333D01*
X129287976Y-72218714D01*
X129383214Y-72218714D01*
X130097500Y-72837761D02*
X130002261Y-72885380D01*
X129811785Y-72885380D01*
X129716547Y-72837761D01*
X129668928Y-72742523D01*
X129668928Y-72361571D01*
X129716547Y-72266333D01*
X129811785Y-72218714D01*
X130002261Y-72218714D01*
X130097500Y-72266333D01*
X130145119Y-72361571D01*
X130145119Y-72456809D01*
X129668928Y-72552047D01*
X119668928Y-73971571D02*
X119811785Y-74019190D01*
X119859404Y-74066809D01*
X119907023Y-74162047D01*
X119907023Y-74304904D01*
X119859404Y-74400142D01*
X119811785Y-74447761D01*
X119716547Y-74495380D01*
X119335595Y-74495380D01*
X119335595Y-73495380D01*
X119668928Y-73495380D01*
X119764166Y-73543000D01*
X119811785Y-73590619D01*
X119859404Y-73685857D01*
X119859404Y-73781095D01*
X119811785Y-73876333D01*
X119764166Y-73923952D01*
X119668928Y-73971571D01*
X119335595Y-73971571D01*
X120240357Y-73828714D02*
X120478452Y-74495380D01*
X120716547Y-73828714D02*
X120478452Y-74495380D01*
X120383214Y-74733476D01*
X120335595Y-74781095D01*
X120240357Y-74828714D01*
X121859404Y-74495380D02*
X121859404Y-73495380D01*
X122097500Y-73495380D01*
X122240357Y-73543000D01*
X122335595Y-73638238D01*
X122383214Y-73733476D01*
X122430833Y-73923952D01*
X122430833Y-74066809D01*
X122383214Y-74257285D01*
X122335595Y-74352523D01*
X122240357Y-74447761D01*
X122097500Y-74495380D01*
X121859404Y-74495380D01*
X122859404Y-74495380D02*
X122859404Y-73828714D01*
X122859404Y-73495380D02*
X122811785Y-73543000D01*
X122859404Y-73590619D01*
X122907023Y-73543000D01*
X122859404Y-73495380D01*
X122859404Y-73590619D01*
X123478452Y-74495380D02*
X123383214Y-74447761D01*
X123335595Y-74400142D01*
X123287976Y-74304904D01*
X123287976Y-74019190D01*
X123335595Y-73923952D01*
X123383214Y-73876333D01*
X123478452Y-73828714D01*
X123621309Y-73828714D01*
X123716547Y-73876333D01*
X123764166Y-73923952D01*
X123811785Y-74019190D01*
X123811785Y-74304904D01*
X123764166Y-74400142D01*
X123716547Y-74447761D01*
X123621309Y-74495380D01*
X123478452Y-74495380D01*
X124240357Y-73828714D02*
X124240357Y-74495380D01*
X124240357Y-73923952D02*
X124287976Y-73876333D01*
X124383214Y-73828714D01*
X124526071Y-73828714D01*
X124621309Y-73876333D01*
X124668928Y-73971571D01*
X124668928Y-74495380D01*
X125049880Y-73828714D02*
X125287976Y-74495380D01*
X125526071Y-73828714D02*
X125287976Y-74495380D01*
X125192738Y-74733476D01*
X125145119Y-74781095D01*
X125049880Y-74828714D01*
X125859404Y-74447761D02*
X125954642Y-74495380D01*
X126145119Y-74495380D01*
X126240357Y-74447761D01*
X126287976Y-74352523D01*
X126287976Y-74304904D01*
X126240357Y-74209666D01*
X126145119Y-74162047D01*
X126002261Y-74162047D01*
X125907023Y-74114428D01*
X125859404Y-74019190D01*
X125859404Y-73971571D01*
X125907023Y-73876333D01*
X126002261Y-73828714D01*
X126145119Y-73828714D01*
X126240357Y-73876333D01*
X128049880Y-74495380D02*
X127716547Y-74019190D01*
X127478452Y-74495380D02*
X127478452Y-73495380D01*
X127859404Y-73495380D01*
X127954642Y-73543000D01*
X128002261Y-73590619D01*
X128049880Y-73685857D01*
X128049880Y-73828714D01*
X128002261Y-73923952D01*
X127954642Y-73971571D01*
X127859404Y-74019190D01*
X127478452Y-74019190D01*
X128478452Y-74400142D02*
X128526071Y-74447761D01*
X128478452Y-74495380D01*
X128430833Y-74447761D01*
X128478452Y-74400142D01*
X128478452Y-74495380D01*
%TO.C,R2*%
X112863333Y-72462380D02*
X112530000Y-71986190D01*
X112291904Y-72462380D02*
X112291904Y-71462380D01*
X112672857Y-71462380D01*
X112768095Y-71510000D01*
X112815714Y-71557619D01*
X112863333Y-71652857D01*
X112863333Y-71795714D01*
X112815714Y-71890952D01*
X112768095Y-71938571D01*
X112672857Y-71986190D01*
X112291904Y-71986190D01*
X113244285Y-71557619D02*
X113291904Y-71510000D01*
X113387142Y-71462380D01*
X113625238Y-71462380D01*
X113720476Y-71510000D01*
X113768095Y-71557619D01*
X113815714Y-71652857D01*
X113815714Y-71748095D01*
X113768095Y-71890952D01*
X113196666Y-72462380D01*
X113815714Y-72462380D01*
%TO.C,D1*%
X85621904Y-84822380D02*
X85621904Y-83822380D01*
X85860000Y-83822380D01*
X86002857Y-83870000D01*
X86098095Y-83965238D01*
X86145714Y-84060476D01*
X86193333Y-84250952D01*
X86193333Y-84393809D01*
X86145714Y-84584285D01*
X86098095Y-84679523D01*
X86002857Y-84774761D01*
X85860000Y-84822380D01*
X85621904Y-84822380D01*
X87145714Y-84822380D02*
X86574285Y-84822380D01*
X86860000Y-84822380D02*
X86860000Y-83822380D01*
X86764761Y-83965238D01*
X86669523Y-84060476D01*
X86574285Y-84108095D01*
%TO.C,C1*%
X87733142Y-90082666D02*
X87780761Y-90130285D01*
X87828380Y-90273142D01*
X87828380Y-90368380D01*
X87780761Y-90511238D01*
X87685523Y-90606476D01*
X87590285Y-90654095D01*
X87399809Y-90701714D01*
X87256952Y-90701714D01*
X87066476Y-90654095D01*
X86971238Y-90606476D01*
X86876000Y-90511238D01*
X86828380Y-90368380D01*
X86828380Y-90273142D01*
X86876000Y-90130285D01*
X86923619Y-90082666D01*
X87828380Y-89130285D02*
X87828380Y-89701714D01*
X87828380Y-89416000D02*
X86828380Y-89416000D01*
X86971238Y-89511238D01*
X87066476Y-89606476D01*
X87114095Y-89701714D01*
%TO.C,U1*%
X104662380Y-79501904D02*
X105471904Y-79501904D01*
X105567142Y-79454285D01*
X105614761Y-79406666D01*
X105662380Y-79311428D01*
X105662380Y-79120952D01*
X105614761Y-79025714D01*
X105567142Y-78978095D01*
X105471904Y-78930476D01*
X104662380Y-78930476D01*
X105662380Y-77930476D02*
X105662380Y-78501904D01*
X105662380Y-78216190D02*
X104662380Y-78216190D01*
X104805238Y-78311428D01*
X104900476Y-78406666D01*
X104948095Y-78501904D01*
%TO.C,H3*%
X86614095Y-68524380D02*
X86614095Y-67524380D01*
X86614095Y-68000571D02*
X87185523Y-68000571D01*
X87185523Y-68524380D02*
X87185523Y-67524380D01*
X87566476Y-67524380D02*
X88185523Y-67524380D01*
X87852190Y-67905333D01*
X87995047Y-67905333D01*
X88090285Y-67952952D01*
X88137904Y-68000571D01*
X88185523Y-68095809D01*
X88185523Y-68333904D01*
X88137904Y-68429142D01*
X88090285Y-68476761D01*
X87995047Y-68524380D01*
X87709333Y-68524380D01*
X87614095Y-68476761D01*
X87566476Y-68429142D01*
%TO.C,U2*%
X99472380Y-86151904D02*
X100281904Y-86151904D01*
X100377142Y-86104285D01*
X100424761Y-86056666D01*
X100472380Y-85961428D01*
X100472380Y-85770952D01*
X100424761Y-85675714D01*
X100377142Y-85628095D01*
X100281904Y-85580476D01*
X99472380Y-85580476D01*
X99567619Y-85151904D02*
X99520000Y-85104285D01*
X99472380Y-85009047D01*
X99472380Y-84770952D01*
X99520000Y-84675714D01*
X99567619Y-84628095D01*
X99662857Y-84580476D01*
X99758095Y-84580476D01*
X99900952Y-84628095D01*
X100472380Y-85199523D01*
X100472380Y-84580476D01*
%TO.C,J3*%
X116506666Y-68242380D02*
X116506666Y-68956666D01*
X116459047Y-69099523D01*
X116363809Y-69194761D01*
X116220952Y-69242380D01*
X116125714Y-69242380D01*
X116887619Y-68242380D02*
X117506666Y-68242380D01*
X117173333Y-68623333D01*
X117316190Y-68623333D01*
X117411428Y-68670952D01*
X117459047Y-68718571D01*
X117506666Y-68813809D01*
X117506666Y-69051904D01*
X117459047Y-69147142D01*
X117411428Y-69194761D01*
X117316190Y-69242380D01*
X117030476Y-69242380D01*
X116935238Y-69194761D01*
X116887619Y-69147142D01*
%TO.C,C2*%
X99957142Y-76666666D02*
X100004761Y-76714285D01*
X100052380Y-76857142D01*
X100052380Y-76952380D01*
X100004761Y-77095238D01*
X99909523Y-77190476D01*
X99814285Y-77238095D01*
X99623809Y-77285714D01*
X99480952Y-77285714D01*
X99290476Y-77238095D01*
X99195238Y-77190476D01*
X99100000Y-77095238D01*
X99052380Y-76952380D01*
X99052380Y-76857142D01*
X99100000Y-76714285D01*
X99147619Y-76666666D01*
X99147619Y-76285714D02*
X99100000Y-76238095D01*
X99052380Y-76142857D01*
X99052380Y-75904761D01*
X99100000Y-75809523D01*
X99147619Y-75761904D01*
X99242857Y-75714285D01*
X99338095Y-75714285D01*
X99480952Y-75761904D01*
X100052380Y-76333333D01*
X100052380Y-75714285D01*
%TO.C,Y2*%
X104413809Y-67551190D02*
X104413809Y-68027380D01*
X104080476Y-67027380D02*
X104413809Y-67551190D01*
X104747142Y-67027380D01*
X105032857Y-67122619D02*
X105080476Y-67075000D01*
X105175714Y-67027380D01*
X105413809Y-67027380D01*
X105509047Y-67075000D01*
X105556666Y-67122619D01*
X105604285Y-67217857D01*
X105604285Y-67313095D01*
X105556666Y-67455952D01*
X104985238Y-68027380D01*
X105604285Y-68027380D01*
%TO.C,RV1*%
X126912761Y-82240380D02*
X126579428Y-81764190D01*
X126341333Y-82240380D02*
X126341333Y-81240380D01*
X126722285Y-81240380D01*
X126817523Y-81288000D01*
X126865142Y-81335619D01*
X126912761Y-81430857D01*
X126912761Y-81573714D01*
X126865142Y-81668952D01*
X126817523Y-81716571D01*
X126722285Y-81764190D01*
X126341333Y-81764190D01*
X127198476Y-81240380D02*
X127531809Y-82240380D01*
X127865142Y-81240380D01*
X128722285Y-82240380D02*
X128150857Y-82240380D01*
X128436571Y-82240380D02*
X128436571Y-81240380D01*
X128341333Y-81383238D01*
X128246095Y-81478476D01*
X128150857Y-81526095D01*
%TO.C,H2*%
X132638095Y-88452380D02*
X132638095Y-87452380D01*
X132638095Y-87928571D02*
X133209523Y-87928571D01*
X133209523Y-88452380D02*
X133209523Y-87452380D01*
X133638095Y-87547619D02*
X133685714Y-87500000D01*
X133780952Y-87452380D01*
X134019047Y-87452380D01*
X134114285Y-87500000D01*
X134161904Y-87547619D01*
X134209523Y-87642857D01*
X134209523Y-87738095D01*
X134161904Y-87880952D01*
X133590476Y-88452380D01*
X134209523Y-88452380D01*
%TO.C,J2*%
X95847380Y-90233333D02*
X96561666Y-90233333D01*
X96704523Y-90280952D01*
X96799761Y-90376190D01*
X96847380Y-90519047D01*
X96847380Y-90614285D01*
X95942619Y-89804761D02*
X95895000Y-89757142D01*
X95847380Y-89661904D01*
X95847380Y-89423809D01*
X95895000Y-89328571D01*
X95942619Y-89280952D01*
X96037857Y-89233333D01*
X96133095Y-89233333D01*
X96275952Y-89280952D01*
X96847380Y-89852380D01*
X96847380Y-89233333D01*
%TO.C,H1*%
X132538095Y-64552380D02*
X132538095Y-63552380D01*
X132538095Y-64028571D02*
X133109523Y-64028571D01*
X133109523Y-64552380D02*
X133109523Y-63552380D01*
X134109523Y-64552380D02*
X133538095Y-64552380D01*
X133823809Y-64552380D02*
X133823809Y-63552380D01*
X133728571Y-63695238D01*
X133633333Y-63790476D01*
X133538095Y-63838095D01*
%TO.C,Y1*%
X108733809Y-82811190D02*
X108733809Y-83287380D01*
X108400476Y-82287380D02*
X108733809Y-82811190D01*
X109067142Y-82287380D01*
X109924285Y-83287380D02*
X109352857Y-83287380D01*
X109638571Y-83287380D02*
X109638571Y-82287380D01*
X109543333Y-82430238D01*
X109448095Y-82525476D01*
X109352857Y-82573095D01*
%TO.C,R3*%
X86193333Y-88462380D02*
X85860000Y-87986190D01*
X85621904Y-88462380D02*
X85621904Y-87462380D01*
X86002857Y-87462380D01*
X86098095Y-87510000D01*
X86145714Y-87557619D01*
X86193333Y-87652857D01*
X86193333Y-87795714D01*
X86145714Y-87890952D01*
X86098095Y-87938571D01*
X86002857Y-87986190D01*
X85621904Y-87986190D01*
X86526666Y-87462380D02*
X87145714Y-87462380D01*
X86812380Y-87843333D01*
X86955238Y-87843333D01*
X87050476Y-87890952D01*
X87098095Y-87938571D01*
X87145714Y-88033809D01*
X87145714Y-88271904D01*
X87098095Y-88367142D01*
X87050476Y-88414761D01*
X86955238Y-88462380D01*
X86669523Y-88462380D01*
X86574285Y-88414761D01*
X86526666Y-88367142D01*
%TO.C,H4*%
X83238095Y-88452380D02*
X83238095Y-87452380D01*
X83238095Y-87928571D02*
X83809523Y-87928571D01*
X83809523Y-88452380D02*
X83809523Y-87452380D01*
X84714285Y-87785714D02*
X84714285Y-88452380D01*
X84476190Y-87404761D02*
X84238095Y-88119047D01*
X84857142Y-88119047D01*
%TO.C,J1*%
X96116666Y-68852380D02*
X96116666Y-69566666D01*
X96069047Y-69709523D01*
X95973809Y-69804761D01*
X95830952Y-69852380D01*
X95735714Y-69852380D01*
X97116666Y-69852380D02*
X96545238Y-69852380D01*
X96830952Y-69852380D02*
X96830952Y-68852380D01*
X96735714Y-68995238D01*
X96640476Y-69090476D01*
X96545238Y-69138095D01*
D11*
%TO.C,R2*%
X112802936Y-74395000D02*
X113257064Y-74395000D01*
X112802936Y-72925000D02*
X113257064Y-72925000D01*
%TO.C,D1*%
X84760000Y-83685000D02*
X88820000Y-83685000D01*
X88820000Y-83685000D02*
X88820000Y-81415000D01*
X88820000Y-81415000D02*
X84760000Y-81415000D01*
%TO.C,C1*%
X89315000Y-86974112D02*
X90060000Y-86974112D01*
X89375000Y-91409887D02*
X89875000Y-91409887D01*
X92140000Y-87574112D02*
X93347000Y-87574112D01*
X88589000Y-88255112D02*
X90060000Y-88255112D01*
X88978000Y-87374112D02*
X90060000Y-87374112D01*
X92140000Y-86974112D02*
X92885000Y-86974112D01*
X89495000Y-86814112D02*
X92705000Y-86814112D01*
X88876000Y-87534112D02*
X90060000Y-87534112D01*
X92140000Y-87934112D02*
X93514000Y-87934112D01*
X88658000Y-88014112D02*
X90060000Y-88014112D01*
X92140000Y-87334112D02*
X93195000Y-87334112D01*
X89447000Y-86854112D02*
X90060000Y-86854112D01*
X92140000Y-88134112D02*
X93580000Y-88134112D01*
X88557000Y-88415112D02*
X90060000Y-88415112D01*
X92140000Y-87134112D02*
X93037000Y-87134112D01*
X92140000Y-88455112D02*
X93650000Y-88455112D01*
X89163000Y-87134112D02*
X90060000Y-87134112D01*
X88531000Y-88615112D02*
X90060000Y-88615112D01*
X89005000Y-87334112D02*
X90060000Y-87334112D01*
X90295000Y-86374112D02*
X91905000Y-86374112D01*
X92140000Y-87854112D02*
X93482000Y-87854112D01*
X92140000Y-87414112D02*
X93249000Y-87414112D01*
X88951000Y-87414112D02*
X90060000Y-87414112D01*
X89401000Y-86894112D02*
X90060000Y-86894112D01*
X89236000Y-87054112D02*
X90060000Y-87054112D01*
X88702000Y-87894112D02*
X90060000Y-87894112D01*
X92140000Y-87214112D02*
X93104000Y-87214112D01*
X92140000Y-88695112D02*
X93676000Y-88695112D01*
X90423000Y-86334112D02*
X91777000Y-86334112D01*
X92140000Y-86894112D02*
X92799000Y-86894112D01*
X92140000Y-87014112D02*
X92926000Y-87014112D01*
X92140000Y-87734112D02*
X93429000Y-87734112D01*
X90089000Y-86454112D02*
X92111000Y-86454112D01*
X92140000Y-88054112D02*
X93555000Y-88054112D01*
X88522000Y-88735112D02*
X90060000Y-88735112D01*
X92140000Y-88335112D02*
X93628000Y-88335112D01*
X92140000Y-86854112D02*
X92753000Y-86854112D01*
X89922000Y-86534112D02*
X92278000Y-86534112D01*
X88620000Y-88134112D02*
X90060000Y-88134112D01*
X88564000Y-88375112D02*
X90060000Y-88375112D01*
X92140000Y-87374112D02*
X93222000Y-87374112D01*
X89717000Y-86654112D02*
X92483000Y-86654112D01*
X88900000Y-87494112D02*
X90060000Y-87494112D01*
X88520000Y-88815112D02*
X90060000Y-88815112D01*
X92140000Y-88175112D02*
X93591000Y-88175112D01*
X89657000Y-86694112D02*
X92543000Y-86694112D01*
X92140000Y-88495112D02*
X93656000Y-88495112D01*
X92140000Y-88735112D02*
X93678000Y-88735112D01*
X89065000Y-87254112D02*
X90060000Y-87254112D01*
X88735000Y-87814112D02*
X90060000Y-87814112D01*
X88771000Y-87734112D02*
X90060000Y-87734112D01*
X92140000Y-87454112D02*
X93275000Y-87454112D01*
X88527000Y-88655112D02*
X90060000Y-88655112D01*
X89274000Y-87014112D02*
X90060000Y-87014112D01*
X92140000Y-88094112D02*
X93568000Y-88094112D01*
X92140000Y-87254112D02*
X93135000Y-87254112D01*
X90816000Y-86254112D02*
X91384000Y-86254112D01*
X88609000Y-88175112D02*
X90060000Y-88175112D01*
X92140000Y-88775112D02*
X93679000Y-88775112D01*
X92140000Y-87974112D02*
X93528000Y-87974112D01*
X89546000Y-86774112D02*
X92654000Y-86774112D01*
X88550000Y-88455112D02*
X90060000Y-88455112D01*
X92140000Y-88535112D02*
X93661000Y-88535112D01*
X88645000Y-88054112D02*
X90060000Y-88054112D01*
X92140000Y-86934112D02*
X92843000Y-86934112D01*
X88580000Y-88295112D02*
X90060000Y-88295112D01*
X92140000Y-88215112D02*
X93601000Y-88215112D01*
X89096000Y-87214112D02*
X90060000Y-87214112D01*
X89600000Y-86734112D02*
X92600000Y-86734112D01*
X88524000Y-88695112D02*
X90060000Y-88695112D01*
X92140000Y-87814112D02*
X93465000Y-87814112D01*
X88810000Y-87654112D02*
X90060000Y-87654112D01*
X92140000Y-88295112D02*
X93620000Y-88295112D01*
X88853000Y-87574112D02*
X90060000Y-87574112D01*
X88535000Y-88575112D02*
X90060000Y-88575112D01*
X92140000Y-87894112D02*
X93498000Y-87894112D01*
X92140000Y-88375112D02*
X93636000Y-88375112D01*
X92140000Y-87614112D02*
X93368000Y-87614112D01*
X92140000Y-87494112D02*
X93300000Y-87494112D01*
X88686000Y-87934112D02*
X90060000Y-87934112D01*
X88520000Y-88855112D02*
X90060000Y-88855112D01*
X90582000Y-86294112D02*
X91618000Y-86294112D01*
X89781000Y-86614112D02*
X92419000Y-86614112D01*
X92140000Y-87694112D02*
X93410000Y-87694112D01*
X88790000Y-87694112D02*
X90060000Y-87694112D01*
X88539000Y-88535112D02*
X90060000Y-88535112D01*
X92140000Y-87294112D02*
X93165000Y-87294112D01*
X88925000Y-87454112D02*
X90060000Y-87454112D01*
X90002000Y-86494112D02*
X92198000Y-86494112D01*
X88832000Y-87614112D02*
X90060000Y-87614112D01*
X92140000Y-87774112D02*
X93448000Y-87774112D01*
X92140000Y-87054112D02*
X92964000Y-87054112D01*
X89357000Y-86934112D02*
X90060000Y-86934112D01*
X92140000Y-87654112D02*
X93390000Y-87654112D01*
X90185000Y-86414112D02*
X92015000Y-86414112D01*
X92140000Y-87534112D02*
X93324000Y-87534112D01*
X92140000Y-88255112D02*
X93611000Y-88255112D01*
X92140000Y-88575112D02*
X93665000Y-88575112D01*
X89849000Y-86574112D02*
X92351000Y-86574112D01*
X89035000Y-87294112D02*
X90060000Y-87294112D01*
X92140000Y-88415112D02*
X93643000Y-88415112D01*
X92140000Y-87174112D02*
X93071000Y-87174112D01*
X92140000Y-88014112D02*
X93542000Y-88014112D01*
X88572000Y-88335112D02*
X90060000Y-88335112D01*
X92140000Y-88615112D02*
X93669000Y-88615112D01*
X88632000Y-88094112D02*
X90060000Y-88094112D01*
X92140000Y-88655112D02*
X93673000Y-88655112D01*
X92140000Y-87094112D02*
X93001000Y-87094112D01*
X89625000Y-91659887D02*
X89625000Y-91159887D01*
X89199000Y-87094112D02*
X90060000Y-87094112D01*
X92140000Y-88855112D02*
X93680000Y-88855112D01*
X88544000Y-88495112D02*
X90060000Y-88495112D01*
X88672000Y-87974112D02*
X90060000Y-87974112D01*
X88599000Y-88215112D02*
X90060000Y-88215112D01*
X88752000Y-87774112D02*
X90060000Y-87774112D01*
X88521000Y-88775112D02*
X90060000Y-88775112D01*
X89129000Y-87174112D02*
X90060000Y-87174112D01*
X88718000Y-87854112D02*
X90060000Y-87854112D01*
X92140000Y-88815112D02*
X93680000Y-88815112D01*
X93720000Y-88855112D02*
G75*
G03*
X93720000Y-88855112I-2620000J0D01*
G01*
%TO.C,U1*%
X114925000Y-78740000D02*
X114925000Y-80690000D01*
X114925000Y-78740000D02*
X114925000Y-76790000D01*
X106055000Y-78740000D02*
X106055000Y-82190000D01*
X106055000Y-78740000D02*
X106055000Y-76790000D01*
%TO.C,U2*%
X94160000Y-84030000D02*
X94390000Y-84030000D01*
X98650000Y-82890000D02*
X98650000Y-84030000D01*
X95470000Y-86750000D02*
X94160000Y-86750000D01*
X98880000Y-86750000D02*
X97570000Y-86750000D01*
X94160000Y-86750000D02*
X94160000Y-84030000D01*
X98880000Y-84030000D02*
X98650000Y-84030000D01*
X98880000Y-84030000D02*
X98880000Y-86750000D01*
%TO.C,J3*%
X118170000Y-72390000D02*
X118170000Y-72450000D01*
X115510000Y-69790000D02*
X116840000Y-69790000D01*
X115510000Y-72390000D02*
X115510000Y-72450000D01*
X115510000Y-72390000D02*
X118170000Y-72390000D01*
X115510000Y-71120000D02*
X115510000Y-69790000D01*
X115510000Y-72450000D02*
X118170000Y-72450000D01*
%TO.C,C2*%
X100560000Y-81461000D02*
X99663000Y-81461000D01*
X102851000Y-82021000D02*
X100349000Y-82021000D01*
X103501000Y-81501000D02*
X102640000Y-81501000D01*
X100560000Y-81061000D02*
X99376000Y-81061000D01*
X103253000Y-81741000D02*
X102640000Y-81741000D01*
X104055000Y-80541000D02*
X102640000Y-80541000D01*
X103824000Y-81061000D02*
X102640000Y-81061000D01*
X100560000Y-80941000D02*
X99310000Y-80941000D01*
X100560000Y-80060000D02*
X99039000Y-80060000D01*
X104028000Y-80621000D02*
X102640000Y-80621000D01*
X100560000Y-79740000D02*
X99020000Y-79740000D01*
X104178000Y-79860000D02*
X102640000Y-79860000D01*
X100560000Y-81501000D02*
X99699000Y-81501000D01*
X104111000Y-80340000D02*
X102640000Y-80340000D01*
X100560000Y-81181000D02*
X99451000Y-81181000D01*
X103910000Y-80901000D02*
X102640000Y-80901000D01*
X103325000Y-77185225D02*
X102825000Y-77185225D01*
X103075000Y-76935225D02*
X103075000Y-77435225D01*
X104169000Y-79980000D02*
X102640000Y-79980000D01*
X100560000Y-80621000D02*
X99172000Y-80621000D01*
X104179000Y-79820000D02*
X102640000Y-79820000D01*
X104120000Y-80300000D02*
X102640000Y-80300000D01*
X103965000Y-80781000D02*
X102640000Y-80781000D01*
X100560000Y-80340000D02*
X99089000Y-80340000D01*
X103775000Y-81141000D02*
X102640000Y-81141000D01*
X100560000Y-80180000D02*
X99057000Y-80180000D01*
X100560000Y-80541000D02*
X99145000Y-80541000D01*
X100560000Y-79860000D02*
X99022000Y-79860000D01*
X100560000Y-81381000D02*
X99596000Y-81381000D01*
X100560000Y-80100000D02*
X99044000Y-80100000D01*
X100560000Y-79900000D02*
X99024000Y-79900000D01*
X102405000Y-82221000D02*
X100795000Y-82221000D01*
X103205000Y-81781000D02*
X99995000Y-81781000D01*
X103299000Y-81701000D02*
X102640000Y-81701000D01*
X100560000Y-80461000D02*
X99120000Y-80461000D01*
X100560000Y-80260000D02*
X99072000Y-80260000D01*
X102919000Y-81981000D02*
X100281000Y-81981000D01*
X100560000Y-80861000D02*
X99271000Y-80861000D01*
X100560000Y-80981000D02*
X99332000Y-80981000D01*
X100560000Y-80741000D02*
X99218000Y-80741000D01*
X103749000Y-81181000D02*
X102640000Y-81181000D01*
X100560000Y-81101000D02*
X99400000Y-81101000D01*
X103695000Y-81261000D02*
X102640000Y-81261000D01*
X100560000Y-79820000D02*
X99021000Y-79820000D01*
X102515000Y-82181000D02*
X100685000Y-82181000D01*
X100560000Y-80140000D02*
X99050000Y-80140000D01*
X103571000Y-81421000D02*
X102640000Y-81421000D01*
X104101000Y-80380000D02*
X102640000Y-80380000D01*
X104165000Y-80020000D02*
X102640000Y-80020000D01*
X103604000Y-81381000D02*
X102640000Y-81381000D01*
X103426000Y-81581000D02*
X102640000Y-81581000D01*
X103890000Y-80941000D02*
X102640000Y-80941000D01*
X100560000Y-80661000D02*
X99186000Y-80661000D01*
X100560000Y-80220000D02*
X99064000Y-80220000D01*
X100560000Y-80901000D02*
X99290000Y-80901000D01*
X100560000Y-81421000D02*
X99629000Y-81421000D01*
X104156000Y-80100000D02*
X102640000Y-80100000D01*
X100560000Y-80420000D02*
X99109000Y-80420000D01*
X104136000Y-80220000D02*
X102640000Y-80220000D01*
X103343000Y-81661000D02*
X102640000Y-81661000D01*
X104143000Y-80180000D02*
X102640000Y-80180000D01*
X103982000Y-80741000D02*
X102640000Y-80741000D01*
X103100000Y-81861000D02*
X100100000Y-81861000D01*
X100560000Y-81541000D02*
X99736000Y-81541000D01*
X100560000Y-80781000D02*
X99235000Y-80781000D01*
X102778000Y-82061000D02*
X100422000Y-82061000D01*
X104128000Y-80260000D02*
X102640000Y-80260000D01*
X104091000Y-80420000D02*
X102640000Y-80420000D01*
X104150000Y-80140000D02*
X102640000Y-80140000D01*
X103948000Y-80821000D02*
X102640000Y-80821000D01*
X100560000Y-79780000D02*
X99020000Y-79780000D01*
X100560000Y-81341000D02*
X99565000Y-81341000D01*
X102277000Y-82261000D02*
X100923000Y-82261000D01*
X100560000Y-80380000D02*
X99099000Y-80380000D01*
X100560000Y-81141000D02*
X99425000Y-81141000D01*
X100560000Y-81701000D02*
X99901000Y-81701000D01*
X104176000Y-79900000D02*
X102640000Y-79900000D01*
X104180000Y-79780000D02*
X102640000Y-79780000D01*
X100560000Y-81261000D02*
X99505000Y-81261000D01*
X103847000Y-81021000D02*
X102640000Y-81021000D01*
X100560000Y-81021000D02*
X99353000Y-81021000D01*
X100560000Y-79980000D02*
X99031000Y-79980000D01*
X100560000Y-81621000D02*
X99815000Y-81621000D01*
X103154000Y-81821000D02*
X100046000Y-81821000D01*
X102611000Y-82141000D02*
X100589000Y-82141000D01*
X100560000Y-81301000D02*
X99535000Y-81301000D01*
X103043000Y-81901000D02*
X100157000Y-81901000D01*
X103464000Y-81541000D02*
X102640000Y-81541000D01*
X103800000Y-81101000D02*
X102640000Y-81101000D01*
X104014000Y-80661000D02*
X102640000Y-80661000D01*
X100560000Y-81221000D02*
X99478000Y-81221000D01*
X102698000Y-82101000D02*
X100502000Y-82101000D01*
X100560000Y-81581000D02*
X99774000Y-81581000D01*
X100560000Y-80701000D02*
X99202000Y-80701000D01*
X103665000Y-81301000D02*
X102640000Y-81301000D01*
X100560000Y-79940000D02*
X99027000Y-79940000D01*
X100560000Y-80581000D02*
X99158000Y-80581000D01*
X103635000Y-81341000D02*
X102640000Y-81341000D01*
X104180000Y-79740000D02*
X102640000Y-79740000D01*
X103385000Y-81621000D02*
X102640000Y-81621000D01*
X100560000Y-81661000D02*
X99857000Y-81661000D01*
X104173000Y-79940000D02*
X102640000Y-79940000D01*
X103929000Y-80861000D02*
X102640000Y-80861000D01*
X103722000Y-81221000D02*
X102640000Y-81221000D01*
X100560000Y-80821000D02*
X99252000Y-80821000D01*
X100560000Y-81741000D02*
X99947000Y-81741000D01*
X100560000Y-80300000D02*
X99080000Y-80300000D01*
X104080000Y-80461000D02*
X102640000Y-80461000D01*
X103868000Y-80981000D02*
X102640000Y-80981000D01*
X103998000Y-80701000D02*
X102640000Y-80701000D01*
X100560000Y-80020000D02*
X99035000Y-80020000D01*
X104068000Y-80501000D02*
X102640000Y-80501000D01*
X101884000Y-82341000D02*
X101316000Y-82341000D01*
X104161000Y-80060000D02*
X102640000Y-80060000D01*
X100560000Y-80501000D02*
X99132000Y-80501000D01*
X102983000Y-81941000D02*
X100217000Y-81941000D01*
X103537000Y-81461000D02*
X102640000Y-81461000D01*
X104042000Y-80581000D02*
X102640000Y-80581000D01*
X102118000Y-82301000D02*
X101082000Y-82301000D01*
X104220000Y-79740000D02*
G75*
G03*
X104220000Y-79740000I-2620000J0D01*
G01*
%TO.C,Y2*%
X101690000Y-68575000D02*
X108090000Y-68575000D01*
X101690000Y-73625000D02*
X108090000Y-73625000D01*
X108090000Y-73625000D02*
G75*
G03*
X108090000Y-68575000I0J2525000D01*
G01*
X101690000Y-68575000D02*
G75*
G03*
X101690000Y-73625000I0J-2525000D01*
G01*
%TO.C,RV1*%
X126984000Y-87020000D02*
X130920000Y-87020000D01*
X118680000Y-82871000D02*
X118680000Y-83630000D01*
X126984000Y-76979000D02*
X130920000Y-76979000D01*
X118680000Y-87020000D02*
X122617000Y-87020000D01*
X118680000Y-76979000D02*
X118680000Y-78300000D01*
X130920000Y-76979000D02*
X130920000Y-87020000D01*
X118680000Y-80750000D02*
X118680000Y-81130000D01*
X118680000Y-85370000D02*
X118680000Y-87020000D01*
X118680000Y-76979000D02*
X122617000Y-76979000D01*
%TO.C,J2*%
X99995000Y-88570000D02*
X102595000Y-88570000D01*
X99995000Y-91230000D02*
X99995000Y-88570000D01*
X102595000Y-91230000D02*
X102595000Y-88570000D01*
X99995000Y-91230000D02*
X102595000Y-91230000D01*
X98725000Y-91230000D02*
X97395000Y-91230000D01*
X97395000Y-91230000D02*
X97395000Y-89900000D01*
%TO.C,Y1*%
X106010000Y-83835000D02*
X112410000Y-83835000D01*
X106010000Y-88885000D02*
X112410000Y-88885000D01*
X112410000Y-88885000D02*
G75*
G03*
X112410000Y-83835000I0J2525000D01*
G01*
X106010000Y-83835000D02*
G75*
G03*
X106010000Y-88885000I0J-2525000D01*
G01*
%TO.C,R3*%
X86587064Y-87095000D02*
X86132936Y-87095000D01*
X86587064Y-85625000D02*
X86132936Y-85625000D01*
%TO.C,J1*%
X97170000Y-70780000D02*
X82430000Y-70780000D01*
X95950000Y-80020000D02*
X97170000Y-80020000D01*
X82430000Y-80020000D02*
X90550000Y-80020000D01*
X97170000Y-72450000D02*
X97170000Y-70780000D01*
X97170000Y-80020000D02*
X97170000Y-78350000D01*
X82430000Y-70780000D02*
X82430000Y-80020000D01*
%TD*%
M02*
