%TF.GenerationSoftware,KiCad,Pcbnew,6.0.9-8da3e8f707~116~ubuntu22.04.1*%
%TF.CreationDate,2022-11-24T00:32:46-04:00*%
%TF.ProjectId,rix,7269782e-6b69-4636-9164-5f7063625858,rev?*%
%TF.SameCoordinates,Original*%
%TF.FileFunction,Legend,Bot*%
%TF.FilePolarity,Positive*%
%FSLAX46Y46*%
G04 Gerber Fmt 4.6, Leading zero omitted, Abs format (unit mm)*
G04 Created by KiCad (PCBNEW 6.0.9-8da3e8f707~116~ubuntu22.04.1) date 2022-11-24 00:32:46*
%MOMM*%
%LPD*%
G01*
G04 APERTURE LIST*
%ADD10C,0.150000*%
%ADD11C,0.120000*%
G04 APERTURE END LIST*
D10*
%TO.C,C3*%
X110656666Y-80777142D02*
X110704285Y-80824761D01*
X110847142Y-80872380D01*
X110942380Y-80872380D01*
X111085238Y-80824761D01*
X111180476Y-80729523D01*
X111228095Y-80634285D01*
X111275714Y-80443809D01*
X111275714Y-80300952D01*
X111228095Y-80110476D01*
X111180476Y-80015238D01*
X111085238Y-79920000D01*
X110942380Y-79872380D01*
X110847142Y-79872380D01*
X110704285Y-79920000D01*
X110656666Y-79967619D01*
X110323333Y-79872380D02*
X109704285Y-79872380D01*
X110037619Y-80253333D01*
X109894761Y-80253333D01*
X109799523Y-80300952D01*
X109751904Y-80348571D01*
X109704285Y-80443809D01*
X109704285Y-80681904D01*
X109751904Y-80777142D01*
X109799523Y-80824761D01*
X109894761Y-80872380D01*
X110180476Y-80872380D01*
X110275714Y-80824761D01*
X110323333Y-80777142D01*
%TO.C,R1*%
X109386666Y-85922380D02*
X109720000Y-85446190D01*
X109958095Y-85922380D02*
X109958095Y-84922380D01*
X109577142Y-84922380D01*
X109481904Y-84970000D01*
X109434285Y-85017619D01*
X109386666Y-85112857D01*
X109386666Y-85255714D01*
X109434285Y-85350952D01*
X109481904Y-85398571D01*
X109577142Y-85446190D01*
X109958095Y-85446190D01*
X108434285Y-85922380D02*
X109005714Y-85922380D01*
X108720000Y-85922380D02*
X108720000Y-84922380D01*
X108815238Y-85065238D01*
X108910476Y-85160476D01*
X109005714Y-85208095D01*
D11*
%TO.C,C3*%
X110228748Y-78005000D02*
X110751252Y-78005000D01*
X110228748Y-79475000D02*
X110751252Y-79475000D01*
%TO.C,R1*%
X108992936Y-83085000D02*
X109447064Y-83085000D01*
X108992936Y-84555000D02*
X109447064Y-84555000D01*
%TD*%
M02*
