%TF.GenerationSoftware,KiCad,Pcbnew,6.0.9-8da3e8f707~116~ubuntu22.04.1*%
%TF.CreationDate,2022-11-24T00:32:46-04:00*%
%TF.ProjectId,rix,7269782e-6b69-4636-9164-5f7063625858,rev?*%
%TF.SameCoordinates,Original*%
%TF.FileFunction,Copper,L2,Bot*%
%TF.FilePolarity,Positive*%
%FSLAX46Y46*%
G04 Gerber Fmt 4.6, Leading zero omitted, Abs format (unit mm)*
G04 Created by KiCad (PCBNEW 6.0.9-8da3e8f707~116~ubuntu22.04.1) date 2022-11-24 00:32:46*
%MOMM*%
%LPD*%
G01*
G04 APERTURE LIST*
G04 Aperture macros list*
%AMRoundRect*
0 Rectangle with rounded corners*
0 $1 Rounding radius*
0 $2 $3 $4 $5 $6 $7 $8 $9 X,Y pos of 4 corners*
0 Add a 4 corners polygon primitive as box body*
4,1,4,$2,$3,$4,$5,$6,$7,$8,$9,$2,$3,0*
0 Add four circle primitives for the rounded corners*
1,1,$1+$1,$2,$3*
1,1,$1+$1,$4,$5*
1,1,$1+$1,$6,$7*
1,1,$1+$1,$8,$9*
0 Add four rect primitives between the rounded corners*
20,1,$1+$1,$2,$3,$4,$5,0*
20,1,$1+$1,$4,$5,$6,$7,0*
20,1,$1+$1,$6,$7,$8,$9,0*
20,1,$1+$1,$8,$9,$2,$3,0*%
G04 Aperture macros list end*
%TA.AperFunction,ComponentPad*%
%ADD10R,1.600000X1.600000*%
%TD*%
%TA.AperFunction,ComponentPad*%
%ADD11C,1.600000*%
%TD*%
%TA.AperFunction,ConnectorPad*%
%ADD12C,3.800000*%
%TD*%
%TA.AperFunction,ComponentPad*%
%ADD13C,2.600000*%
%TD*%
%TA.AperFunction,ComponentPad*%
%ADD14R,1.700000X1.700000*%
%TD*%
%TA.AperFunction,ComponentPad*%
%ADD15C,1.500000*%
%TD*%
%TA.AperFunction,ComponentPad*%
%ADD16R,1.800000X1.800000*%
%TD*%
%TA.AperFunction,ComponentPad*%
%ADD17C,1.800000*%
%TD*%
%TA.AperFunction,ComponentPad*%
%ADD18RoundRect,0.750000X-1.250000X-0.750000X1.250000X-0.750000X1.250000X0.750000X-1.250000X0.750000X0*%
%TD*%
%TA.AperFunction,ComponentPad*%
%ADD19O,1.700000X1.700000*%
%TD*%
%TA.AperFunction,ComponentPad*%
%ADD20R,2.000000X4.500000*%
%TD*%
%TA.AperFunction,ComponentPad*%
%ADD21O,2.000000X4.000000*%
%TD*%
%TA.AperFunction,ComponentPad*%
%ADD22O,4.000000X2.000000*%
%TD*%
%TA.AperFunction,SMDPad,CuDef*%
%ADD23RoundRect,0.250000X-0.337500X-0.475000X0.337500X-0.475000X0.337500X0.475000X-0.337500X0.475000X0*%
%TD*%
%TA.AperFunction,SMDPad,CuDef*%
%ADD24RoundRect,0.250000X-0.350000X-0.450000X0.350000X-0.450000X0.350000X0.450000X-0.350000X0.450000X0*%
%TD*%
%TA.AperFunction,ViaPad*%
%ADD25C,0.800000*%
%TD*%
%TA.AperFunction,Conductor*%
%ADD26C,0.250000*%
%TD*%
G04 APERTURE END LIST*
D10*
%TO.P,C1,1*%
%TO.N,Net-(C1-Pad1)*%
X91100000Y-89855112D03*
D11*
%TO.P,C1,2*%
%TO.N,GND*%
X91100000Y-87855112D03*
%TD*%
D12*
%TO.P,H3,1,1*%
%TO.N,GND*%
X84000000Y-67100000D03*
D13*
X84000000Y-67100000D03*
%TD*%
D14*
%TO.P,J3,1,Pin_1*%
%TO.N,Net-(J3-Pad1)*%
X116840000Y-71120000D03*
%TD*%
D10*
%TO.P,C2,1*%
%TO.N,Net-(C2-Pad1)*%
X101600000Y-78740000D03*
D11*
%TO.P,C2,2*%
%TO.N,GND*%
X101600000Y-80740000D03*
%TD*%
D15*
%TO.P,Y2,1,1*%
%TO.N,Net-(U1-Pad12)*%
X102450000Y-71100000D03*
%TO.P,Y2,2,2*%
%TO.N,Net-(R2-Pad1)*%
X107330000Y-71100000D03*
%TD*%
D16*
%TO.P,RV1,1,1*%
%TO.N,Net-(R1-Pad2)*%
X117800000Y-79500000D03*
D17*
%TO.P,RV1,2,2*%
X117800000Y-82000000D03*
%TO.P,RV1,3,3*%
%TO.N,Net-(RV1-Pad3)*%
X117800000Y-84500000D03*
D18*
%TO.P,RV1,MP,MountPin*%
%TO.N,GND*%
X124800000Y-77600000D03*
X124800000Y-86400000D03*
%TD*%
D12*
%TO.P,H2,1,1*%
%TO.N,GND*%
X133400000Y-90900000D03*
D13*
X133400000Y-90900000D03*
%TD*%
D14*
%TO.P,J2,1,Pin_1*%
%TO.N,Net-(J2-Pad1)*%
X98725000Y-89900000D03*
D19*
%TO.P,J2,2,Pin_2*%
%TO.N,Net-(J2-Pad2)*%
X101265000Y-89900000D03*
%TD*%
D13*
%TO.P,H1,1,1*%
%TO.N,GND*%
X133300000Y-67000000D03*
D12*
X133300000Y-67000000D03*
%TD*%
D15*
%TO.P,Y1,1,1*%
%TO.N,Net-(R1-Pad1)*%
X106770000Y-86360000D03*
%TO.P,Y1,2,2*%
%TO.N,Net-(RV1-Pad3)*%
X111650000Y-86360000D03*
%TD*%
D13*
%TO.P,H4,1,1*%
%TO.N,GND*%
X84000000Y-90900000D03*
D12*
X84000000Y-90900000D03*
%TD*%
D20*
%TO.P,J1,1*%
%TO.N,Net-(C1-Pad1)*%
X96450000Y-75400000D03*
D21*
%TO.P,J1,2*%
%TO.N,GND*%
X90250000Y-75400000D03*
D22*
%TO.P,J1,3*%
%TO.N,unconnected-(J1-Pad3)*%
X93250000Y-80100000D03*
%TD*%
D23*
%TO.P,C3,1*%
%TO.N,Net-(C2-Pad1)*%
X109452500Y-78740000D03*
%TO.P,C3,2*%
%TO.N,GND*%
X111527500Y-78740000D03*
%TD*%
D24*
%TO.P,R1,1*%
%TO.N,Net-(R1-Pad1)*%
X108220000Y-83820000D03*
%TO.P,R1,2*%
%TO.N,Net-(R1-Pad2)*%
X110220000Y-83820000D03*
%TD*%
D25*
%TO.N,GND*%
X86360000Y-73660000D03*
X89916000Y-84836000D03*
X134112000Y-78740000D03*
X119380000Y-90932000D03*
X105156000Y-72136000D03*
X116332000Y-83312000D03*
X115824000Y-73660000D03*
X105156000Y-74676000D03*
X105156000Y-81788000D03*
X120396000Y-82296000D03*
X104648000Y-77724000D03*
X114300000Y-86360000D03*
X97536000Y-68580000D03*
X113284000Y-70612000D03*
X102108000Y-87376000D03*
X113500000Y-78600000D03*
%TO.N,Net-(C2-Pad1)*%
X92000000Y-82900000D03*
X107300000Y-78500000D03*
%TD*%
D26*
%TO.N,Net-(R1-Pad2)*%
X117800000Y-82000000D02*
X117800000Y-79500000D01*
X110220000Y-83820000D02*
X114300000Y-83820000D01*
X114300000Y-83820000D02*
X116120000Y-82000000D01*
X116120000Y-82000000D02*
X117800000Y-82000000D01*
%TO.N,GND*%
X110560000Y-80740000D02*
X111700000Y-79600000D01*
X133400000Y-90900000D02*
X131500001Y-92799999D01*
X91100000Y-85000000D02*
X91100000Y-87855112D01*
X101600000Y-80740000D02*
X110560000Y-80740000D01*
X133300000Y-90800000D02*
X133400000Y-90900000D01*
X113360000Y-78740000D02*
X113500000Y-78600000D01*
X111700000Y-78912500D02*
X111527500Y-78740000D01*
X133300000Y-67000000D02*
X133300000Y-90800000D01*
X111527500Y-78740000D02*
X113360000Y-78740000D01*
X84100000Y-67000000D02*
X84000000Y-67100000D01*
X133300000Y-67000000D02*
X84100000Y-67000000D01*
X84000000Y-90900000D02*
X82400000Y-89300000D01*
X90250000Y-75400000D02*
X90250000Y-84150000D01*
X90250000Y-84150000D02*
X91100000Y-85000000D01*
X82400000Y-68700000D02*
X84000000Y-67100000D01*
X85899999Y-92799999D02*
X84000000Y-90900000D01*
X111700000Y-79600000D02*
X111700000Y-78912500D01*
X82400000Y-89300000D02*
X82400000Y-68700000D01*
X131500001Y-92799999D02*
X85899999Y-92799999D01*
%TO.N,Net-(C2-Pad1)*%
X107540000Y-78740000D02*
X107300000Y-78500000D01*
X92000000Y-82900000D02*
X96100000Y-82900000D01*
X100260000Y-78740000D02*
X101600000Y-78740000D01*
X109452500Y-78740000D02*
X107540000Y-78740000D01*
X96100000Y-82900000D02*
X100260000Y-78740000D01*
%TO.N,Net-(R1-Pad1)*%
X108220000Y-83820000D02*
X106770000Y-85270000D01*
X106770000Y-85270000D02*
X106770000Y-86360000D01*
%TD*%
%TA.AperFunction,Conductor*%
%TO.N,GND*%
G36*
X132603048Y-65535762D02*
G01*
X134552898Y-66023224D01*
X134614133Y-66059151D01*
X134641872Y-66105617D01*
X135121534Y-67544602D01*
X135128000Y-67584447D01*
X135128000Y-90911553D01*
X135121534Y-90951398D01*
X134650198Y-92365405D01*
X134608509Y-92424637D01*
X134547934Y-92472231D01*
X134509934Y-92492688D01*
X133511278Y-92825574D01*
X133471860Y-92832039D01*
X133348465Y-92832457D01*
X133331823Y-92831409D01*
X133140017Y-92806502D01*
X133118878Y-92801339D01*
X133114325Y-92800380D01*
X133105889Y-92797302D01*
X133075815Y-92795333D01*
X133061429Y-92794391D01*
X133050285Y-92793161D01*
X133044422Y-92792248D01*
X133044415Y-92792247D01*
X133039614Y-92791500D01*
X133021372Y-92791500D01*
X133013142Y-92791231D01*
X132969502Y-92788374D01*
X132969499Y-92788374D01*
X132960543Y-92787788D01*
X132951780Y-92789740D01*
X132942832Y-92790429D01*
X132942806Y-92790093D01*
X132930015Y-92791500D01*
X84107399Y-92791500D01*
X84037507Y-92770338D01*
X82839971Y-91971981D01*
X82794386Y-91917552D01*
X82790329Y-91906988D01*
X82574167Y-91258500D01*
X82389082Y-90703246D01*
X89791500Y-90703246D01*
X89798255Y-90765428D01*
X89849385Y-90901817D01*
X89936739Y-91018373D01*
X90053295Y-91105727D01*
X90189684Y-91156857D01*
X90251866Y-91163612D01*
X91948134Y-91163612D01*
X92010316Y-91156857D01*
X92146705Y-91105727D01*
X92263261Y-91018373D01*
X92350615Y-90901817D01*
X92389484Y-90798134D01*
X97366500Y-90798134D01*
X97373255Y-90860316D01*
X97424385Y-90996705D01*
X97511739Y-91113261D01*
X97628295Y-91200615D01*
X97764684Y-91251745D01*
X97826866Y-91258500D01*
X99623134Y-91258500D01*
X99685316Y-91251745D01*
X99821705Y-91200615D01*
X99938261Y-91113261D01*
X100025615Y-90996705D01*
X100064339Y-90893409D01*
X100069598Y-90879382D01*
X100112240Y-90822618D01*
X100178802Y-90797918D01*
X100248150Y-90813126D01*
X100282817Y-90841114D01*
X100311250Y-90873938D01*
X100483126Y-91016632D01*
X100676000Y-91129338D01*
X100680825Y-91131180D01*
X100680826Y-91131181D01*
X100748065Y-91156857D01*
X100884692Y-91209030D01*
X100889760Y-91210061D01*
X100889763Y-91210062D01*
X100997017Y-91231883D01*
X101103597Y-91253567D01*
X101108772Y-91253757D01*
X101108774Y-91253757D01*
X101321673Y-91261564D01*
X101321677Y-91261564D01*
X101326837Y-91261753D01*
X101331957Y-91261097D01*
X101331959Y-91261097D01*
X101543288Y-91234025D01*
X101543289Y-91234025D01*
X101548416Y-91233368D01*
X101553366Y-91231883D01*
X101757429Y-91170661D01*
X101757434Y-91170659D01*
X101762384Y-91169174D01*
X101962994Y-91070896D01*
X102144860Y-90941173D01*
X102303096Y-90783489D01*
X102310758Y-90772827D01*
X102430435Y-90606277D01*
X102433453Y-90602077D01*
X102461414Y-90545503D01*
X102530136Y-90406453D01*
X102530137Y-90406451D01*
X102532430Y-90401811D01*
X102597370Y-90188069D01*
X102626529Y-89966590D01*
X102628156Y-89900000D01*
X102609852Y-89677361D01*
X102555431Y-89460702D01*
X102466354Y-89255840D01*
X102345014Y-89068277D01*
X102194670Y-88903051D01*
X102190619Y-88899852D01*
X102190615Y-88899848D01*
X102023414Y-88767800D01*
X102023410Y-88767798D01*
X102019359Y-88764598D01*
X101823789Y-88656638D01*
X101818920Y-88654914D01*
X101818916Y-88654912D01*
X101618087Y-88583795D01*
X101618083Y-88583794D01*
X101613212Y-88582069D01*
X101608119Y-88581162D01*
X101608116Y-88581161D01*
X101398373Y-88543800D01*
X101398367Y-88543799D01*
X101393284Y-88542894D01*
X101319452Y-88541992D01*
X101175081Y-88540228D01*
X101175079Y-88540228D01*
X101169911Y-88540165D01*
X100949091Y-88573955D01*
X100736756Y-88643357D01*
X100538607Y-88746507D01*
X100534474Y-88749610D01*
X100534471Y-88749612D01*
X100444965Y-88816815D01*
X100359965Y-88880635D01*
X100298652Y-88944796D01*
X100279283Y-88965064D01*
X100217759Y-89000494D01*
X100146846Y-88997037D01*
X100089060Y-88955791D01*
X100070207Y-88922243D01*
X100028767Y-88811703D01*
X100025615Y-88803295D01*
X99938261Y-88686739D01*
X99821705Y-88599385D01*
X99685316Y-88548255D01*
X99623134Y-88541500D01*
X97826866Y-88541500D01*
X97764684Y-88548255D01*
X97628295Y-88599385D01*
X97511739Y-88686739D01*
X97424385Y-88803295D01*
X97373255Y-88939684D01*
X97366500Y-89001866D01*
X97366500Y-90798134D01*
X92389484Y-90798134D01*
X92401745Y-90765428D01*
X92408500Y-90703246D01*
X92408500Y-89006978D01*
X92401745Y-88944796D01*
X92350615Y-88808407D01*
X92263261Y-88691851D01*
X92146705Y-88604497D01*
X92010316Y-88553367D01*
X91948134Y-88546612D01*
X90251866Y-88546612D01*
X90189684Y-88553367D01*
X90053295Y-88604497D01*
X89936739Y-88691851D01*
X89849385Y-88808407D01*
X89798255Y-88944796D01*
X89791500Y-89006978D01*
X89791500Y-90703246D01*
X82389082Y-90703246D01*
X82302466Y-90443398D01*
X82296000Y-90403553D01*
X82296000Y-86360000D01*
X105506693Y-86360000D01*
X105525885Y-86579371D01*
X105582880Y-86792076D01*
X105585205Y-86797061D01*
X105673618Y-86986666D01*
X105673621Y-86986671D01*
X105675944Y-86991653D01*
X105802251Y-87172038D01*
X105957962Y-87327749D01*
X106138346Y-87454056D01*
X106337924Y-87547120D01*
X106550629Y-87604115D01*
X106770000Y-87623307D01*
X106989371Y-87604115D01*
X107202076Y-87547120D01*
X107401654Y-87454056D01*
X107582038Y-87327749D01*
X107737749Y-87172038D01*
X107864056Y-86991653D01*
X107866379Y-86986671D01*
X107866382Y-86986666D01*
X107954795Y-86797061D01*
X107957120Y-86792076D01*
X108014115Y-86579371D01*
X108033307Y-86360000D01*
X110386693Y-86360000D01*
X110405885Y-86579371D01*
X110462880Y-86792076D01*
X110465205Y-86797061D01*
X110553618Y-86986666D01*
X110553621Y-86986671D01*
X110555944Y-86991653D01*
X110682251Y-87172038D01*
X110837962Y-87327749D01*
X111018346Y-87454056D01*
X111217924Y-87547120D01*
X111430629Y-87604115D01*
X111650000Y-87623307D01*
X111869371Y-87604115D01*
X112082076Y-87547120D01*
X112281654Y-87454056D01*
X112462038Y-87327749D01*
X112617749Y-87172038D01*
X112744056Y-86991653D01*
X112746379Y-86986671D01*
X112746382Y-86986666D01*
X112834795Y-86797061D01*
X112837120Y-86792076D01*
X112894115Y-86579371D01*
X112913307Y-86360000D01*
X112894115Y-86140629D01*
X112837120Y-85927924D01*
X112784876Y-85815886D01*
X112746382Y-85733334D01*
X112746379Y-85733329D01*
X112744056Y-85728347D01*
X112696437Y-85660340D01*
X112620908Y-85552473D01*
X112620906Y-85552470D01*
X112617749Y-85547962D01*
X112462038Y-85392251D01*
X112281654Y-85265944D01*
X112082076Y-85172880D01*
X111869371Y-85115885D01*
X111650000Y-85096693D01*
X111430629Y-85115885D01*
X111217924Y-85172880D01*
X111124562Y-85216415D01*
X111023334Y-85263618D01*
X111023329Y-85263621D01*
X111018347Y-85265944D01*
X111013840Y-85269100D01*
X111013838Y-85269101D01*
X110842473Y-85389092D01*
X110842470Y-85389094D01*
X110837962Y-85392251D01*
X110682251Y-85547962D01*
X110679094Y-85552470D01*
X110679092Y-85552473D01*
X110603563Y-85660340D01*
X110555944Y-85728347D01*
X110553621Y-85733329D01*
X110553618Y-85733334D01*
X110515124Y-85815886D01*
X110462880Y-85927924D01*
X110405885Y-86140629D01*
X110386693Y-86360000D01*
X108033307Y-86360000D01*
X108014115Y-86140629D01*
X107957120Y-85927924D01*
X107904876Y-85815886D01*
X107866382Y-85733334D01*
X107866379Y-85733329D01*
X107864056Y-85728347D01*
X107816437Y-85660340D01*
X107740908Y-85552473D01*
X107740906Y-85552470D01*
X107737749Y-85547962D01*
X107651941Y-85462154D01*
X107617915Y-85399842D01*
X107622980Y-85329027D01*
X107651940Y-85283964D01*
X107870500Y-85065404D01*
X107932810Y-85031380D01*
X107959594Y-85028500D01*
X108620400Y-85028500D01*
X108623646Y-85028163D01*
X108623650Y-85028163D01*
X108719308Y-85018238D01*
X108719312Y-85018237D01*
X108726166Y-85017526D01*
X108732702Y-85015345D01*
X108732704Y-85015345D01*
X108864806Y-84971272D01*
X108893946Y-84961550D01*
X109044348Y-84868478D01*
X109130784Y-84781891D01*
X109193066Y-84747812D01*
X109263886Y-84752815D01*
X109308976Y-84781736D01*
X109396697Y-84869305D01*
X109402927Y-84873145D01*
X109402928Y-84873146D01*
X109540090Y-84957694D01*
X109547262Y-84962115D01*
X109617878Y-84985537D01*
X109708611Y-85015632D01*
X109708613Y-85015632D01*
X109715139Y-85017797D01*
X109721975Y-85018497D01*
X109721978Y-85018498D01*
X109765031Y-85022909D01*
X109819600Y-85028500D01*
X110620400Y-85028500D01*
X110623646Y-85028163D01*
X110623650Y-85028163D01*
X110719308Y-85018238D01*
X110719312Y-85018237D01*
X110726166Y-85017526D01*
X110732702Y-85015345D01*
X110732704Y-85015345D01*
X110864806Y-84971272D01*
X110893946Y-84961550D01*
X111044348Y-84868478D01*
X111169305Y-84743303D01*
X111173146Y-84737072D01*
X111258275Y-84598968D01*
X111258276Y-84598966D01*
X111262115Y-84592738D01*
X111279663Y-84539832D01*
X111320094Y-84481473D01*
X111385658Y-84454236D01*
X111399256Y-84453500D01*
X114221233Y-84453500D01*
X114232416Y-84454027D01*
X114239909Y-84455702D01*
X114247835Y-84455453D01*
X114247836Y-84455453D01*
X114307986Y-84453562D01*
X114311945Y-84453500D01*
X114339856Y-84453500D01*
X114343791Y-84453003D01*
X114343856Y-84452995D01*
X114355693Y-84452062D01*
X114387951Y-84451048D01*
X114391970Y-84450922D01*
X114399889Y-84450673D01*
X114419343Y-84445021D01*
X114438700Y-84441013D01*
X114450930Y-84439468D01*
X114450931Y-84439468D01*
X114458797Y-84438474D01*
X114466168Y-84435555D01*
X114466170Y-84435555D01*
X114499912Y-84422196D01*
X114511142Y-84418351D01*
X114545983Y-84408229D01*
X114545984Y-84408229D01*
X114553593Y-84406018D01*
X114560412Y-84401985D01*
X114560417Y-84401983D01*
X114571028Y-84395707D01*
X114588776Y-84387012D01*
X114607617Y-84379552D01*
X114643387Y-84353564D01*
X114653307Y-84347048D01*
X114684535Y-84328580D01*
X114684538Y-84328578D01*
X114691362Y-84324542D01*
X114705683Y-84310221D01*
X114720717Y-84297380D01*
X114730694Y-84290131D01*
X114737107Y-84285472D01*
X114765298Y-84251395D01*
X114773288Y-84242616D01*
X116345499Y-82670405D01*
X116407811Y-82636379D01*
X116434594Y-82633500D01*
X116465630Y-82633500D01*
X116533751Y-82653502D01*
X116573063Y-82693665D01*
X116659501Y-82834719D01*
X116811147Y-83009784D01*
X116986462Y-83155333D01*
X117026097Y-83214235D01*
X117027595Y-83285216D01*
X116990481Y-83345739D01*
X116981630Y-83353037D01*
X116869877Y-83436944D01*
X116861655Y-83443117D01*
X116845949Y-83459552D01*
X116776479Y-83532249D01*
X116701639Y-83610564D01*
X116698725Y-83614836D01*
X116698724Y-83614837D01*
X116683152Y-83637665D01*
X116571119Y-83801899D01*
X116473602Y-84011981D01*
X116411707Y-84235169D01*
X116387095Y-84465469D01*
X116387392Y-84470622D01*
X116387392Y-84470625D01*
X116394433Y-84592738D01*
X116400427Y-84696697D01*
X116401564Y-84701743D01*
X116401565Y-84701749D01*
X116429939Y-84827651D01*
X116451346Y-84922642D01*
X116453288Y-84927424D01*
X116453289Y-84927428D01*
X116536540Y-85132450D01*
X116538484Y-85137237D01*
X116659501Y-85334719D01*
X116811147Y-85509784D01*
X116989349Y-85657730D01*
X117189322Y-85774584D01*
X117405694Y-85857209D01*
X117410760Y-85858240D01*
X117410761Y-85858240D01*
X117463846Y-85869040D01*
X117632656Y-85903385D01*
X117763324Y-85908176D01*
X117858949Y-85911683D01*
X117858953Y-85911683D01*
X117864113Y-85911872D01*
X117869233Y-85911216D01*
X117869235Y-85911216D01*
X117942270Y-85901860D01*
X118093847Y-85882442D01*
X118098795Y-85880957D01*
X118098802Y-85880956D01*
X118310747Y-85817369D01*
X118315690Y-85815886D01*
X118396236Y-85776427D01*
X118519049Y-85716262D01*
X118519052Y-85716260D01*
X118523684Y-85713991D01*
X118712243Y-85579494D01*
X118876303Y-85416005D01*
X119011458Y-85227917D01*
X119022422Y-85205734D01*
X119111784Y-85024922D01*
X119111785Y-85024920D01*
X119114078Y-85020280D01*
X119181408Y-84798671D01*
X119211640Y-84569041D01*
X119213327Y-84500000D01*
X119204753Y-84395707D01*
X119194773Y-84274318D01*
X119194772Y-84274312D01*
X119194349Y-84269167D01*
X119137925Y-84044533D01*
X119132735Y-84032596D01*
X119047630Y-83836868D01*
X119047628Y-83836865D01*
X119045570Y-83832131D01*
X118919764Y-83637665D01*
X118763887Y-83466358D01*
X118759836Y-83463159D01*
X118759832Y-83463155D01*
X118613690Y-83347740D01*
X118572627Y-83289823D01*
X118569395Y-83218900D01*
X118605020Y-83157489D01*
X118618613Y-83146279D01*
X118712243Y-83079494D01*
X118876303Y-82916005D01*
X119011458Y-82727917D01*
X119020278Y-82710072D01*
X119111784Y-82524922D01*
X119111785Y-82524920D01*
X119114078Y-82520280D01*
X119181408Y-82298671D01*
X119211640Y-82069041D01*
X119212499Y-82033891D01*
X119213245Y-82003365D01*
X119213245Y-82003361D01*
X119213327Y-82000000D01*
X119207032Y-81923434D01*
X119194773Y-81774318D01*
X119194772Y-81774312D01*
X119194349Y-81769167D01*
X119166137Y-81656850D01*
X119139184Y-81549544D01*
X119139183Y-81549540D01*
X119137925Y-81544533D01*
X119128397Y-81522620D01*
X119047630Y-81336868D01*
X119047628Y-81336865D01*
X119045570Y-81332131D01*
X118919764Y-81137665D01*
X118856986Y-81068672D01*
X118825936Y-81004829D01*
X118834331Y-80934330D01*
X118879507Y-80879562D01*
X118905952Y-80865893D01*
X118938295Y-80853768D01*
X118938296Y-80853767D01*
X118946705Y-80850615D01*
X119063261Y-80763261D01*
X119150615Y-80646705D01*
X119201745Y-80510316D01*
X119208500Y-80448134D01*
X119208500Y-78551866D01*
X119201745Y-78489684D01*
X119150615Y-78353295D01*
X119063261Y-78236739D01*
X118946705Y-78149385D01*
X118810316Y-78098255D01*
X118748134Y-78091500D01*
X116851866Y-78091500D01*
X116789684Y-78098255D01*
X116653295Y-78149385D01*
X116536739Y-78236739D01*
X116449385Y-78353295D01*
X116398255Y-78489684D01*
X116391500Y-78551866D01*
X116391500Y-80448134D01*
X116398255Y-80510316D01*
X116449385Y-80646705D01*
X116536739Y-80763261D01*
X116653295Y-80850615D01*
X116661703Y-80853767D01*
X116693022Y-80865508D01*
X116749786Y-80908150D01*
X116774486Y-80974711D01*
X116759279Y-81044060D01*
X116739886Y-81070540D01*
X116701639Y-81110564D01*
X116698725Y-81114836D01*
X116698724Y-81114837D01*
X116623794Y-81224681D01*
X116571119Y-81301899D01*
X116570403Y-81303442D01*
X116520086Y-81352090D01*
X116461574Y-81366500D01*
X116198768Y-81366500D01*
X116187585Y-81365973D01*
X116180092Y-81364298D01*
X116172166Y-81364547D01*
X116172165Y-81364547D01*
X116112002Y-81366438D01*
X116108044Y-81366500D01*
X116080144Y-81366500D01*
X116076154Y-81367004D01*
X116064320Y-81367936D01*
X116020111Y-81369326D01*
X116012495Y-81371539D01*
X116012493Y-81371539D01*
X116000652Y-81374979D01*
X115981293Y-81378988D01*
X115979983Y-81379154D01*
X115961203Y-81381526D01*
X115953837Y-81384442D01*
X115953831Y-81384444D01*
X115920098Y-81397800D01*
X115908868Y-81401645D01*
X115874017Y-81411770D01*
X115866407Y-81413981D01*
X115859584Y-81418016D01*
X115848966Y-81424295D01*
X115831213Y-81432992D01*
X115823568Y-81436019D01*
X115812383Y-81440448D01*
X115805968Y-81445109D01*
X115776612Y-81466437D01*
X115766695Y-81472951D01*
X115728638Y-81495458D01*
X115714317Y-81509779D01*
X115699284Y-81522619D01*
X115682893Y-81534528D01*
X115677842Y-81540634D01*
X115654702Y-81568605D01*
X115646712Y-81577384D01*
X114074500Y-83149595D01*
X114012188Y-83183621D01*
X113985405Y-83186500D01*
X111399197Y-83186500D01*
X111331076Y-83166498D01*
X111284583Y-83112842D01*
X111279674Y-83100377D01*
X111263867Y-83052998D01*
X111263866Y-83052996D01*
X111261550Y-83046054D01*
X111168478Y-82895652D01*
X111043303Y-82770695D01*
X110918338Y-82693665D01*
X110898968Y-82681725D01*
X110898966Y-82681724D01*
X110892738Y-82677885D01*
X110812995Y-82651436D01*
X110731389Y-82624368D01*
X110731387Y-82624368D01*
X110724861Y-82622203D01*
X110718025Y-82621503D01*
X110718022Y-82621502D01*
X110674969Y-82617091D01*
X110620400Y-82611500D01*
X109819600Y-82611500D01*
X109816354Y-82611837D01*
X109816350Y-82611837D01*
X109720692Y-82621762D01*
X109720688Y-82621763D01*
X109713834Y-82622474D01*
X109707298Y-82624655D01*
X109707296Y-82624655D01*
X109620832Y-82653502D01*
X109546054Y-82678450D01*
X109395652Y-82771522D01*
X109336959Y-82830318D01*
X109309216Y-82858109D01*
X109246934Y-82892188D01*
X109176114Y-82887185D01*
X109131025Y-82858264D01*
X109048483Y-82775866D01*
X109043303Y-82770695D01*
X108918338Y-82693665D01*
X108898968Y-82681725D01*
X108898966Y-82681724D01*
X108892738Y-82677885D01*
X108812995Y-82651436D01*
X108731389Y-82624368D01*
X108731387Y-82624368D01*
X108724861Y-82622203D01*
X108718025Y-82621503D01*
X108718022Y-82621502D01*
X108674969Y-82617091D01*
X108620400Y-82611500D01*
X107819600Y-82611500D01*
X107816354Y-82611837D01*
X107816350Y-82611837D01*
X107720692Y-82621762D01*
X107720688Y-82621763D01*
X107713834Y-82622474D01*
X107707298Y-82624655D01*
X107707296Y-82624655D01*
X107620832Y-82653502D01*
X107546054Y-82678450D01*
X107395652Y-82771522D01*
X107270695Y-82896697D01*
X107177885Y-83047262D01*
X107161651Y-83096206D01*
X107141325Y-83157489D01*
X107122203Y-83215139D01*
X107111500Y-83319600D01*
X107111500Y-83980405D01*
X107091498Y-84048526D01*
X107074595Y-84069501D01*
X106725744Y-84418351D01*
X106377742Y-84766353D01*
X106369463Y-84773887D01*
X106362982Y-84778000D01*
X106316357Y-84827651D01*
X106313602Y-84830493D01*
X106293865Y-84850230D01*
X106291385Y-84853427D01*
X106283682Y-84862447D01*
X106253414Y-84894679D01*
X106249595Y-84901625D01*
X106249593Y-84901628D01*
X106243652Y-84912434D01*
X106232801Y-84928953D01*
X106220386Y-84944959D01*
X106217241Y-84952228D01*
X106217238Y-84952232D01*
X106202826Y-84985537D01*
X106197609Y-84996187D01*
X106176305Y-85034940D01*
X106174334Y-85042615D01*
X106174334Y-85042616D01*
X106171267Y-85054562D01*
X106164863Y-85073266D01*
X106156819Y-85091855D01*
X106155580Y-85099678D01*
X106155577Y-85099688D01*
X106149901Y-85135524D01*
X106147495Y-85147144D01*
X106136500Y-85189970D01*
X106136500Y-85201645D01*
X106135670Y-85204473D01*
X106135507Y-85205760D01*
X106135299Y-85205734D01*
X106116498Y-85269766D01*
X106082771Y-85304858D01*
X106034552Y-85338622D01*
X105957962Y-85392251D01*
X105802251Y-85547962D01*
X105799094Y-85552470D01*
X105799092Y-85552473D01*
X105723563Y-85660340D01*
X105675944Y-85728347D01*
X105673621Y-85733329D01*
X105673618Y-85733334D01*
X105635124Y-85815886D01*
X105582880Y-85927924D01*
X105525885Y-86140629D01*
X105506693Y-86360000D01*
X82296000Y-86360000D01*
X82296000Y-82900000D01*
X91086496Y-82900000D01*
X91087186Y-82906565D01*
X91102577Y-83052998D01*
X91106458Y-83089928D01*
X91165473Y-83271556D01*
X91168776Y-83277278D01*
X91168777Y-83277279D01*
X91176019Y-83289823D01*
X91260960Y-83436944D01*
X91265378Y-83441851D01*
X91265379Y-83441852D01*
X91347452Y-83533003D01*
X91388747Y-83578866D01*
X91543248Y-83691118D01*
X91549276Y-83693802D01*
X91549278Y-83693803D01*
X91711681Y-83766109D01*
X91717712Y-83768794D01*
X91811113Y-83788647D01*
X91898056Y-83807128D01*
X91898061Y-83807128D01*
X91904513Y-83808500D01*
X92095487Y-83808500D01*
X92101939Y-83807128D01*
X92101944Y-83807128D01*
X92188887Y-83788647D01*
X92282288Y-83768794D01*
X92288319Y-83766109D01*
X92450722Y-83693803D01*
X92450724Y-83693802D01*
X92456752Y-83691118D01*
X92524345Y-83642009D01*
X92589671Y-83594546D01*
X92611253Y-83578866D01*
X92615668Y-83573963D01*
X92620580Y-83569540D01*
X92621705Y-83570789D01*
X92675014Y-83537949D01*
X92708200Y-83533500D01*
X96021233Y-83533500D01*
X96032416Y-83534027D01*
X96039909Y-83535702D01*
X96047835Y-83535453D01*
X96047836Y-83535453D01*
X96107986Y-83533562D01*
X96111945Y-83533500D01*
X96139856Y-83533500D01*
X96143791Y-83533003D01*
X96143856Y-83532995D01*
X96155693Y-83532062D01*
X96187951Y-83531048D01*
X96191970Y-83530922D01*
X96199889Y-83530673D01*
X96219343Y-83525021D01*
X96238700Y-83521013D01*
X96250930Y-83519468D01*
X96250931Y-83519468D01*
X96258797Y-83518474D01*
X96266168Y-83515555D01*
X96266170Y-83515555D01*
X96299912Y-83502196D01*
X96311142Y-83498351D01*
X96345983Y-83488229D01*
X96345984Y-83488229D01*
X96353593Y-83486018D01*
X96360412Y-83481985D01*
X96360417Y-83481983D01*
X96371028Y-83475707D01*
X96388776Y-83467012D01*
X96407617Y-83459552D01*
X96443387Y-83433564D01*
X96453307Y-83427048D01*
X96484535Y-83408580D01*
X96484538Y-83408578D01*
X96491362Y-83404542D01*
X96505683Y-83390221D01*
X96520717Y-83377380D01*
X96530694Y-83370131D01*
X96537107Y-83365472D01*
X96565298Y-83331395D01*
X96573288Y-83322616D01*
X100146467Y-79749437D01*
X100208779Y-79715411D01*
X100279594Y-79720476D01*
X100336430Y-79763023D01*
X100346081Y-79778021D01*
X100346235Y-79778302D01*
X100349385Y-79786705D01*
X100354769Y-79793888D01*
X100354769Y-79793889D01*
X100366195Y-79809134D01*
X100436739Y-79903261D01*
X100553295Y-79990615D01*
X100689684Y-80041745D01*
X100751866Y-80048500D01*
X102448134Y-80048500D01*
X102510316Y-80041745D01*
X102646705Y-79990615D01*
X102763261Y-79903261D01*
X102850615Y-79786705D01*
X102901745Y-79650316D01*
X102908500Y-79588134D01*
X102908500Y-78500000D01*
X106386496Y-78500000D01*
X106387186Y-78506565D01*
X106403937Y-78665939D01*
X106406458Y-78689928D01*
X106465473Y-78871556D01*
X106468776Y-78877278D01*
X106468777Y-78877279D01*
X106502686Y-78936010D01*
X106560960Y-79036944D01*
X106565378Y-79041851D01*
X106565379Y-79041852D01*
X106664280Y-79151693D01*
X106688747Y-79178866D01*
X106767768Y-79236278D01*
X106803423Y-79262183D01*
X106843248Y-79291118D01*
X106849276Y-79293802D01*
X106849278Y-79293803D01*
X107011681Y-79366109D01*
X107017712Y-79368794D01*
X107111113Y-79388647D01*
X107198056Y-79407128D01*
X107198061Y-79407128D01*
X107204513Y-79408500D01*
X107395487Y-79408500D01*
X107401940Y-79407128D01*
X107401944Y-79407128D01*
X107500713Y-79386134D01*
X107545257Y-79376665D01*
X107559598Y-79374472D01*
X107563969Y-79374059D01*
X107575821Y-79373500D01*
X108277462Y-79373500D01*
X108345583Y-79393502D01*
X108392076Y-79447158D01*
X108396986Y-79459624D01*
X108423450Y-79538946D01*
X108516522Y-79689348D01*
X108641697Y-79814305D01*
X108647927Y-79818145D01*
X108647928Y-79818146D01*
X108786010Y-79903261D01*
X108792262Y-79907115D01*
X108872005Y-79933564D01*
X108953611Y-79960632D01*
X108953613Y-79960632D01*
X108960139Y-79962797D01*
X108966975Y-79963497D01*
X108966978Y-79963498D01*
X109010031Y-79967909D01*
X109064600Y-79973500D01*
X109840400Y-79973500D01*
X109843646Y-79973163D01*
X109843650Y-79973163D01*
X109939308Y-79963238D01*
X109939312Y-79963237D01*
X109946166Y-79962526D01*
X109952702Y-79960345D01*
X109952704Y-79960345D01*
X110102646Y-79910320D01*
X110113946Y-79906550D01*
X110264348Y-79813478D01*
X110389305Y-79688303D01*
X110442004Y-79602810D01*
X110478275Y-79543968D01*
X110478276Y-79543966D01*
X110482115Y-79537738D01*
X110537797Y-79369861D01*
X110539580Y-79352464D01*
X110545865Y-79291118D01*
X110548500Y-79265400D01*
X110548500Y-78214600D01*
X110545440Y-78185110D01*
X110538238Y-78115692D01*
X110538237Y-78115688D01*
X110537526Y-78108834D01*
X110533815Y-78097709D01*
X110483868Y-77948002D01*
X110481550Y-77941054D01*
X110388478Y-77790652D01*
X110263303Y-77665695D01*
X110142937Y-77591500D01*
X110118968Y-77576725D01*
X110118966Y-77576724D01*
X110112738Y-77572885D01*
X109952254Y-77519655D01*
X109951389Y-77519368D01*
X109951387Y-77519368D01*
X109944861Y-77517203D01*
X109938025Y-77516503D01*
X109938022Y-77516502D01*
X109894969Y-77512091D01*
X109840400Y-77506500D01*
X109064600Y-77506500D01*
X109061354Y-77506837D01*
X109061350Y-77506837D01*
X108965692Y-77516762D01*
X108965688Y-77516763D01*
X108958834Y-77517474D01*
X108952298Y-77519655D01*
X108952296Y-77519655D01*
X108820194Y-77563728D01*
X108791054Y-77573450D01*
X108640652Y-77666522D01*
X108515695Y-77791697D01*
X108511855Y-77797927D01*
X108511854Y-77797928D01*
X108453950Y-77891866D01*
X108422885Y-77942262D01*
X108403751Y-77999949D01*
X108397045Y-78020167D01*
X108356614Y-78078527D01*
X108291050Y-78105764D01*
X108277452Y-78106500D01*
X108194604Y-78106500D01*
X108126483Y-78086498D01*
X108085485Y-78043501D01*
X108072013Y-78020167D01*
X108039040Y-77963056D01*
X108025486Y-77948002D01*
X107915675Y-77826045D01*
X107915674Y-77826044D01*
X107911253Y-77821134D01*
X107756752Y-77708882D01*
X107750724Y-77706198D01*
X107750722Y-77706197D01*
X107588319Y-77633891D01*
X107588318Y-77633891D01*
X107582288Y-77631206D01*
X107488888Y-77611353D01*
X107401944Y-77592872D01*
X107401939Y-77592872D01*
X107395487Y-77591500D01*
X107204513Y-77591500D01*
X107198061Y-77592872D01*
X107198056Y-77592872D01*
X107111112Y-77611353D01*
X107017712Y-77631206D01*
X107011682Y-77633891D01*
X107011681Y-77633891D01*
X106849278Y-77706197D01*
X106849276Y-77706198D01*
X106843248Y-77708882D01*
X106688747Y-77821134D01*
X106684326Y-77826044D01*
X106684325Y-77826045D01*
X106574515Y-77948002D01*
X106560960Y-77963056D01*
X106531974Y-78013261D01*
X106470934Y-78118986D01*
X106465473Y-78128444D01*
X106406458Y-78310072D01*
X106405768Y-78316633D01*
X106405768Y-78316635D01*
X106402670Y-78346109D01*
X106386496Y-78500000D01*
X102908500Y-78500000D01*
X102908500Y-77891866D01*
X102901745Y-77829684D01*
X102850615Y-77693295D01*
X102763261Y-77576739D01*
X102646705Y-77489385D01*
X102510316Y-77438255D01*
X102448134Y-77431500D01*
X100751866Y-77431500D01*
X100689684Y-77438255D01*
X100553295Y-77489385D01*
X100436739Y-77576739D01*
X100349385Y-77693295D01*
X100298255Y-77829684D01*
X100291500Y-77891866D01*
X100291500Y-77983095D01*
X100271498Y-78051216D01*
X100217842Y-78097709D01*
X100175819Y-78107545D01*
X100175865Y-78107838D01*
X100171848Y-78108474D01*
X100169461Y-78109033D01*
X100168527Y-78109063D01*
X100160110Y-78109327D01*
X100142744Y-78114372D01*
X100140658Y-78114978D01*
X100121306Y-78118986D01*
X100109068Y-78120532D01*
X100109066Y-78120533D01*
X100101203Y-78121526D01*
X100060086Y-78137806D01*
X100048885Y-78141641D01*
X100006406Y-78153982D01*
X99999587Y-78158015D01*
X99999582Y-78158017D01*
X99988971Y-78164293D01*
X99971221Y-78172990D01*
X99952383Y-78180448D01*
X99945967Y-78185109D01*
X99945966Y-78185110D01*
X99916625Y-78206428D01*
X99906701Y-78212947D01*
X99875460Y-78231422D01*
X99875455Y-78231426D01*
X99868637Y-78235458D01*
X99854313Y-78249782D01*
X99839281Y-78262621D01*
X99822893Y-78274528D01*
X99798682Y-78303794D01*
X99794712Y-78308593D01*
X99786722Y-78317373D01*
X95874500Y-82229595D01*
X95812188Y-82263621D01*
X95785405Y-82266500D01*
X92708200Y-82266500D01*
X92640079Y-82246498D01*
X92620853Y-82230157D01*
X92620580Y-82230460D01*
X92615668Y-82226037D01*
X92611253Y-82221134D01*
X92456752Y-82108882D01*
X92450724Y-82106198D01*
X92450722Y-82106197D01*
X92288319Y-82033891D01*
X92288318Y-82033891D01*
X92282288Y-82031206D01*
X92188888Y-82011353D01*
X92101944Y-81992872D01*
X92101939Y-81992872D01*
X92095487Y-81991500D01*
X91904513Y-81991500D01*
X91898061Y-81992872D01*
X91898056Y-81992872D01*
X91811112Y-82011353D01*
X91717712Y-82031206D01*
X91711682Y-82033891D01*
X91711681Y-82033891D01*
X91549278Y-82106197D01*
X91549276Y-82106198D01*
X91543248Y-82108882D01*
X91388747Y-82221134D01*
X91384326Y-82226044D01*
X91384325Y-82226045D01*
X91350492Y-82263621D01*
X91260960Y-82363056D01*
X91165473Y-82528444D01*
X91106458Y-82710072D01*
X91086496Y-82900000D01*
X82296000Y-82900000D01*
X82296000Y-80152817D01*
X90737514Y-80152817D01*
X90738095Y-80157837D01*
X90738095Y-80157841D01*
X90753923Y-80294631D01*
X90765415Y-80393956D01*
X90766791Y-80398820D01*
X90766792Y-80398823D01*
X90812476Y-80560266D01*
X90831510Y-80627532D01*
X90833644Y-80632108D01*
X90833646Y-80632114D01*
X90890446Y-80753922D01*
X90934099Y-80847536D01*
X90936940Y-80851717D01*
X90936941Y-80851718D01*
X90955864Y-80879562D01*
X91070544Y-81048307D01*
X91237332Y-81224681D01*
X91241358Y-81227759D01*
X91241359Y-81227760D01*
X91426154Y-81369047D01*
X91426158Y-81369050D01*
X91430174Y-81372120D01*
X91434632Y-81374510D01*
X91434633Y-81374511D01*
X91543700Y-81432992D01*
X91644109Y-81486831D01*
X91873631Y-81565862D01*
X91940338Y-81577384D01*
X92108926Y-81606504D01*
X92108932Y-81606505D01*
X92112836Y-81607179D01*
X92116797Y-81607359D01*
X92116798Y-81607359D01*
X92140506Y-81608436D01*
X92140525Y-81608436D01*
X92141925Y-81608500D01*
X94311001Y-81608500D01*
X94313509Y-81608298D01*
X94313514Y-81608298D01*
X94486924Y-81594346D01*
X94486929Y-81594345D01*
X94491965Y-81593940D01*
X94496873Y-81592734D01*
X94496876Y-81592734D01*
X94722792Y-81537244D01*
X94727706Y-81536037D01*
X94732358Y-81534062D01*
X94732362Y-81534061D01*
X94876322Y-81472953D01*
X94951156Y-81441188D01*
X95051901Y-81377745D01*
X95152288Y-81314528D01*
X95152291Y-81314526D01*
X95156567Y-81311833D01*
X95255422Y-81224681D01*
X95334858Y-81154650D01*
X95334861Y-81154647D01*
X95338655Y-81151302D01*
X95346288Y-81142009D01*
X95489526Y-80967628D01*
X95489528Y-80967625D01*
X95492734Y-80963722D01*
X95614841Y-80753922D01*
X95653239Y-80653891D01*
X95700020Y-80532022D01*
X95700021Y-80532018D01*
X95701833Y-80527298D01*
X95717662Y-80451531D01*
X95750440Y-80294631D01*
X95750440Y-80294627D01*
X95751474Y-80289680D01*
X95762486Y-80047183D01*
X95761536Y-80038971D01*
X95735167Y-79811071D01*
X95735166Y-79811067D01*
X95734585Y-79806044D01*
X95731146Y-79793889D01*
X95669866Y-79577331D01*
X95668490Y-79572468D01*
X95666356Y-79567892D01*
X95666354Y-79567886D01*
X95568038Y-79357046D01*
X95568036Y-79357042D01*
X95565901Y-79352464D01*
X95429456Y-79151693D01*
X95262668Y-78975319D01*
X95258641Y-78972240D01*
X95073846Y-78830953D01*
X95073842Y-78830950D01*
X95069826Y-78827880D01*
X94855891Y-78713169D01*
X94626369Y-78634138D01*
X94527022Y-78616978D01*
X94391074Y-78593496D01*
X94391068Y-78593495D01*
X94387164Y-78592821D01*
X94383203Y-78592641D01*
X94383202Y-78592641D01*
X94359494Y-78591564D01*
X94359475Y-78591564D01*
X94358075Y-78591500D01*
X92188999Y-78591500D01*
X92186491Y-78591702D01*
X92186486Y-78591702D01*
X92013076Y-78605654D01*
X92013071Y-78605655D01*
X92008035Y-78606060D01*
X92003127Y-78607266D01*
X92003124Y-78607266D01*
X91887007Y-78635787D01*
X91772294Y-78663963D01*
X91767642Y-78665938D01*
X91767638Y-78665939D01*
X91711124Y-78689928D01*
X91548844Y-78758812D01*
X91544560Y-78761510D01*
X91347712Y-78885472D01*
X91347709Y-78885474D01*
X91343433Y-78888167D01*
X91339639Y-78891512D01*
X91165142Y-79045350D01*
X91165139Y-79045353D01*
X91161345Y-79048698D01*
X91007266Y-79236278D01*
X91004724Y-79240646D01*
X90907829Y-79407128D01*
X90885159Y-79446078D01*
X90883346Y-79450801D01*
X90809776Y-79642460D01*
X90798167Y-79672702D01*
X90797133Y-79677652D01*
X90797132Y-79677655D01*
X90749998Y-79903275D01*
X90748526Y-79910320D01*
X90737514Y-80152817D01*
X82296000Y-80152817D01*
X82296000Y-77698134D01*
X94941500Y-77698134D01*
X94948255Y-77760316D01*
X94999385Y-77896705D01*
X95086739Y-78013261D01*
X95203295Y-78100615D01*
X95339684Y-78151745D01*
X95401866Y-78158500D01*
X97498134Y-78158500D01*
X97560316Y-78151745D01*
X97696705Y-78100615D01*
X97813261Y-78013261D01*
X97900615Y-77896705D01*
X97951745Y-77760316D01*
X97958500Y-77698134D01*
X97958500Y-73101866D01*
X97951745Y-73039684D01*
X97900615Y-72903295D01*
X97813261Y-72786739D01*
X97696705Y-72699385D01*
X97560316Y-72648255D01*
X97498134Y-72641500D01*
X95401866Y-72641500D01*
X95339684Y-72648255D01*
X95203295Y-72699385D01*
X95086739Y-72786739D01*
X94999385Y-72903295D01*
X94948255Y-73039684D01*
X94941500Y-73101866D01*
X94941500Y-77698134D01*
X82296000Y-77698134D01*
X82296000Y-71100000D01*
X101186693Y-71100000D01*
X101205885Y-71319371D01*
X101262880Y-71532076D01*
X101265205Y-71537061D01*
X101353618Y-71726666D01*
X101353621Y-71726671D01*
X101355944Y-71731653D01*
X101482251Y-71912038D01*
X101637962Y-72067749D01*
X101642471Y-72070906D01*
X101642473Y-72070908D01*
X101655909Y-72080316D01*
X101818346Y-72194056D01*
X102017924Y-72287120D01*
X102230629Y-72344115D01*
X102450000Y-72363307D01*
X102669371Y-72344115D01*
X102882076Y-72287120D01*
X103081654Y-72194056D01*
X103244091Y-72080316D01*
X103257527Y-72070908D01*
X103257529Y-72070906D01*
X103262038Y-72067749D01*
X103417749Y-71912038D01*
X103544056Y-71731653D01*
X103546379Y-71726671D01*
X103546382Y-71726666D01*
X103634795Y-71537061D01*
X103637120Y-71532076D01*
X103694115Y-71319371D01*
X103713307Y-71100000D01*
X106066693Y-71100000D01*
X106085885Y-71319371D01*
X106142880Y-71532076D01*
X106145205Y-71537061D01*
X106233618Y-71726666D01*
X106233621Y-71726671D01*
X106235944Y-71731653D01*
X106362251Y-71912038D01*
X106517962Y-72067749D01*
X106522471Y-72070906D01*
X106522473Y-72070908D01*
X106535909Y-72080316D01*
X106698346Y-72194056D01*
X106897924Y-72287120D01*
X107110629Y-72344115D01*
X107330000Y-72363307D01*
X107549371Y-72344115D01*
X107762076Y-72287120D01*
X107961654Y-72194056D01*
X108124091Y-72080316D01*
X108137527Y-72070908D01*
X108137529Y-72070906D01*
X108142038Y-72067749D01*
X108191653Y-72018134D01*
X115481500Y-72018134D01*
X115488255Y-72080316D01*
X115539385Y-72216705D01*
X115626739Y-72333261D01*
X115743295Y-72420615D01*
X115879684Y-72471745D01*
X115941866Y-72478500D01*
X117738134Y-72478500D01*
X117800316Y-72471745D01*
X117936705Y-72420615D01*
X118053261Y-72333261D01*
X118140615Y-72216705D01*
X118191745Y-72080316D01*
X118198500Y-72018134D01*
X118198500Y-70221866D01*
X118191745Y-70159684D01*
X118140615Y-70023295D01*
X118053261Y-69906739D01*
X117936705Y-69819385D01*
X117800316Y-69768255D01*
X117738134Y-69761500D01*
X115941866Y-69761500D01*
X115879684Y-69768255D01*
X115743295Y-69819385D01*
X115626739Y-69906739D01*
X115539385Y-70023295D01*
X115488255Y-70159684D01*
X115481500Y-70221866D01*
X115481500Y-72018134D01*
X108191653Y-72018134D01*
X108297749Y-71912038D01*
X108424056Y-71731653D01*
X108426379Y-71726671D01*
X108426382Y-71726666D01*
X108514795Y-71537061D01*
X108517120Y-71532076D01*
X108574115Y-71319371D01*
X108593307Y-71100000D01*
X108574115Y-70880629D01*
X108517120Y-70667924D01*
X108473585Y-70574562D01*
X108426382Y-70473334D01*
X108426379Y-70473329D01*
X108424056Y-70468347D01*
X108297749Y-70287962D01*
X108142038Y-70132251D01*
X107961654Y-70005944D01*
X107762076Y-69912880D01*
X107549371Y-69855885D01*
X107330000Y-69836693D01*
X107110629Y-69855885D01*
X106897924Y-69912880D01*
X106804562Y-69956415D01*
X106703334Y-70003618D01*
X106703329Y-70003621D01*
X106698347Y-70005944D01*
X106693840Y-70009100D01*
X106693838Y-70009101D01*
X106522473Y-70129092D01*
X106522470Y-70129094D01*
X106517962Y-70132251D01*
X106362251Y-70287962D01*
X106235944Y-70468347D01*
X106233621Y-70473329D01*
X106233618Y-70473334D01*
X106186415Y-70574562D01*
X106142880Y-70667924D01*
X106085885Y-70880629D01*
X106066693Y-71100000D01*
X103713307Y-71100000D01*
X103694115Y-70880629D01*
X103637120Y-70667924D01*
X103593585Y-70574562D01*
X103546382Y-70473334D01*
X103546379Y-70473329D01*
X103544056Y-70468347D01*
X103417749Y-70287962D01*
X103262038Y-70132251D01*
X103081654Y-70005944D01*
X102882076Y-69912880D01*
X102669371Y-69855885D01*
X102450000Y-69836693D01*
X102230629Y-69855885D01*
X102017924Y-69912880D01*
X101924562Y-69956415D01*
X101823334Y-70003618D01*
X101823329Y-70003621D01*
X101818347Y-70005944D01*
X101813840Y-70009100D01*
X101813838Y-70009101D01*
X101642473Y-70129092D01*
X101642470Y-70129094D01*
X101637962Y-70132251D01*
X101482251Y-70287962D01*
X101355944Y-70468347D01*
X101353621Y-70473329D01*
X101353618Y-70473334D01*
X101306415Y-70574562D01*
X101262880Y-70667924D01*
X101205885Y-70880629D01*
X101186693Y-71100000D01*
X82296000Y-71100000D01*
X82296000Y-67584447D01*
X82302466Y-67544602D01*
X82782128Y-66105617D01*
X82822645Y-66047317D01*
X82871102Y-66023225D01*
X84820952Y-65535762D01*
X84851511Y-65532000D01*
X132572489Y-65532000D01*
X132603048Y-65535762D01*
G37*
%TD.AperFunction*%
%TD*%
M02*
