M48
; DRILL file {KiCad 6.0.9-8da3e8f707~117~ubuntu22.04.1} date Thu 01 Dec 2022 02:03:04 AM AST
; FORMAT={-:-/ absolute / metric / decimal}
; #@! TF.CreationDate,2022-12-01T02:03:04-04:00
; #@! TF.GenerationSoftware,Kicad,Pcbnew,6.0.9-8da3e8f707~117~ubuntu22.04.1
; #@! TF.FileFunction,MixedPlating,1,2
FMAT,2
METRIC
; #@! TA.AperFunction,Plated,PTH,ViaDrill
T1C0.400
; #@! TA.AperFunction,Plated,PTH,ComponentDrill
T2C0.750
; #@! TA.AperFunction,Plated,PTH,ComponentDrill
T3C0.800
; #@! TA.AperFunction,Plated,PTH,ComponentDrill
T4C0.890
; #@! TA.AperFunction,Plated,PTH,ComponentDrill
T5C1.000
; #@! TA.AperFunction,Plated,PTH,ComponentDrill
T6C1.800
; #@! TA.AperFunction,Plated,PTH,ComponentDrill
T7C2.200
%
G90
G05
T1
X89.916Y-84.836
X92.0Y-82.9
X94.0Y-71.0
X97.0Y-75.0
X102.108Y-87.376
X104.648Y-77.724
X105.156Y-72.136
X105.156Y-74.676
X107.3Y-78.5
X112.0Y-74.0
X113.5Y-78.6
X114.3Y-86.36
X115.0Y-69.0
X116.332Y-83.312
X119.0Y-74.0
X120.0Y-90.932
X120.396Y-82.296
T2
X86.0Y-74.0
X86.0Y-76.0
T3
X91.1Y-87.855
X91.1Y-89.855
X101.6Y-78.74
X101.6Y-80.74
X102.45Y-71.1
X106.77Y-86.36
X107.33Y-71.1
X111.65Y-86.36
T4
X91.35Y-72.01
X91.35Y-77.09
X93.89Y-77.09
X96.43Y-72.01
X96.43Y-77.09
T5
X98.0Y-89.9
X100.54Y-89.9
X117.8Y-79.5
X117.8Y-82.0
X117.8Y-84.5
X119.0Y-70.0
T7
X84.0Y-67.0
X84.0Y-90.9
X133.0Y-67.0
X133.0Y-91.0
T6
G00X124.65Y-77.6
M15
G01X124.95Y-77.6
M16
G05
G00X124.65Y-86.4
M15
G01X124.95Y-86.4
M16
G05
T0
M30
