M48
; DRILL file {KiCad 6.0.9-8da3e8f707~116~ubuntu22.04.1} date Thu 24 Nov 2022 12:32:16 AM AST
; FORMAT={-:-/ absolute / metric / decimal}
; #@! TF.CreationDate,2022-11-24T00:32:16-04:00
; #@! TF.GenerationSoftware,Kicad,Pcbnew,6.0.9-8da3e8f707~116~ubuntu22.04.1
; #@! TF.FileFunction,MixedPlating,1,2
FMAT,2
METRIC
; #@! TA.AperFunction,Plated,PTH,ViaDrill
T1C0.400
; #@! TA.AperFunction,Plated,PTH,ComponentDrill
T2C0.800
; #@! TA.AperFunction,Plated,PTH,ComponentDrill
T3C1.000
; #@! TA.AperFunction,Plated,PTH,ComponentDrill
T4C1.800
; #@! TA.AperFunction,Plated,PTH,ComponentDrill
T5C2.200
%
G90
G05
T1
X86.36Y-73.66
X89.916Y-84.836
X92.0Y-82.9
X97.536Y-68.58
X102.108Y-87.376
X104.648Y-77.724
X105.156Y-72.136
X105.156Y-74.676
X105.156Y-81.788
X107.3Y-78.5
X113.284Y-70.612
X113.5Y-78.6
X114.3Y-86.36
X115.824Y-73.66
X116.332Y-83.312
X119.38Y-90.932
X120.396Y-82.296
X134.112Y-78.74
T2
X91.1Y-87.855
X91.1Y-89.855
X101.6Y-78.74
X101.6Y-80.74
X102.45Y-71.1
X106.77Y-86.36
X107.33Y-71.1
X111.65Y-86.36
T3
X98.725Y-89.9
X101.265Y-89.9
X116.84Y-71.12
X117.8Y-79.5
X117.8Y-82.0
X117.8Y-84.5
T5
X84.0Y-67.1
X84.0Y-90.9
X133.3Y-67.0
X133.4Y-90.9
T3
G00X90.25Y-74.4
M15
G01X90.25Y-76.4
M16
G05
G00X92.25Y-80.1
M15
G01X94.25Y-80.1
M16
G05
G00X96.45Y-74.15
M15
G01X96.45Y-76.65
M16
G05
T4
G00X124.65Y-77.6
M15
G01X124.95Y-77.6
M16
G05
G00X124.65Y-86.4
M15
G01X124.95Y-86.4
M16
G05
T0
M30
