M48
; DRILL file {KiCad 6.0.9-8da3e8f707~117~ubuntu22.04.1} date Thu 08 Dec 2022 02:35:02 PM AST
; FORMAT={-:-/ absolute / metric / decimal}
; #@! TF.CreationDate,2022-12-08T14:35:02-04:00
; #@! TF.GenerationSoftware,Kicad,Pcbnew,6.0.9-8da3e8f707~117~ubuntu22.04.1
; #@! TF.FileFunction,MixedPlating,1,2
FMAT,2
METRIC
; #@! TA.AperFunction,Plated,PTH,ViaDrill
T1C0.400
; #@! TA.AperFunction,Plated,PTH,ComponentDrill
T2C0.700
; #@! TA.AperFunction,Plated,PTH,ComponentDrill
T3C0.800
; #@! TA.AperFunction,Plated,PTH,ComponentDrill
T4C0.900
; #@! TA.AperFunction,Plated,PTH,ComponentDrill
T5C1.000
; #@! TA.AperFunction,Plated,PTH,ComponentDrill
T6C1.100
; #@! TA.AperFunction,Plated,PTH,ComponentDrill
T7C1.300
; #@! TA.AperFunction,Plated,PTH,ComponentDrill
T8C2.200
%
G90
G05
T1
X88.0Y-78.4
X90.0Y-92.0
X92.0Y-97.5
X98.5Y-78.5
X99.0Y-83.3
X103.7Y-104.0
X103.8Y-81.3
X105.5Y-73.25
X108.1Y-83.4
X109.0Y-66.9
X110.1Y-74.6
X117.1Y-84.9
X117.5Y-80.1
X121.6Y-71.1
X129.6Y-76.2
X130.1Y-109.1
X133.5Y-96.2
X133.7Y-91.4
X134.6Y-78.7
X136.8Y-71.6
X138.6Y-94.5
T2
X84.5Y-86.96
X84.5Y-92.04
X97.5Y-100.21
X97.5Y-105.29
X101.75Y-100.21
X101.75Y-105.29
X104.5Y-90.96
X104.5Y-96.04
X106.0Y-100.21
X106.0Y-105.29
X110.5Y-83.46
X110.5Y-88.54
X110.5Y-100.21
X110.5Y-105.29
X115.0Y-83.46
X115.0Y-88.54
X115.0Y-100.21
X115.0Y-105.29
X117.0Y-91.71
X117.0Y-96.79
X119.0Y-83.46
X119.0Y-88.54
X123.5Y-83.46
X123.5Y-88.54
X141.25Y-96.71
X141.25Y-101.79
T3
X94.46Y-93.48
X97.0Y-96.02
X99.54Y-93.48
X100.96Y-86.52
X103.5Y-67.818
X103.5Y-70.318
X103.5Y-75.682
X103.5Y-78.182
X103.5Y-83.98
X106.04Y-86.52
X108.73Y-94.21
X111.27Y-91.67
X111.27Y-96.75
X124.0Y-98.0
X124.0Y-100.5
X128.43Y-85.385
X128.43Y-87.925
X128.43Y-90.465
X128.43Y-93.005
X128.43Y-95.545
X128.43Y-98.085
X128.43Y-100.625
X136.05Y-85.385
X136.05Y-87.925
X136.05Y-90.465
X136.05Y-93.005
X136.05Y-95.545
X136.05Y-98.085
X136.05Y-100.625
X138.0Y-105.75
X140.5Y-105.75
X141.5Y-86.55
X141.5Y-91.43
T4
X84.5Y-80.225
X84.5Y-82.765
X90.328Y-82.672
X90.328Y-85.172
X90.328Y-87.672
X90.96Y-110.75
X91.0Y-105.25
X93.5Y-110.75
X93.54Y-105.25
X96.328Y-82.672
X96.328Y-85.172
X96.328Y-87.672
X98.21Y-110.75
X100.75Y-110.75
X105.5Y-110.75
X108.04Y-110.75
X112.75Y-110.75
X115.29Y-110.75
X120.235Y-105.0
X120.25Y-110.75
X122.775Y-105.0
X122.79Y-110.75
T5
X86.0Y-98.525
X88.5Y-98.525
T6
X127.0Y-106.75
X127.0Y-111.25
X133.5Y-106.75
X133.5Y-111.25
T7
X113.25Y-72.35
X113.75Y-79.65
X117.85Y-68.45
X120.35Y-75.25
X123.05Y-76.45
X128.942Y-72.35
X129.442Y-79.65
X133.542Y-68.45
X136.042Y-75.25
X138.743Y-76.45
T8
X84.25Y-67.0
X84.25Y-111.45
X123.0Y-93.5
X143.4Y-67.0
X143.65Y-111.45
T5
G00X88.007Y-72.5
M15
G01X88.007Y-74.5
M16
G05
G00X93.707Y-70.5
M15
G01X91.707Y-70.5
M16
G05
G00X93.707Y-76.5
M15
G01X91.707Y-76.5
M16
G05
T0
M30
